<svg width="730" height="135" viewBox="0 0 730 135" fill="none" xmlns="http://www.w3.org/2000/svg">
<path d="M151.205 24.2195V25.7048C160.776 24.2745 172.081 23.4494 185.119 23.2293C186.604 23.2293 187.677 22.5142 188.337 21.0839C188.502 20.5888 188.584 20.1213 188.584 19.6812C188.584 18.1409 187.869 17.0682 186.439 16.4631C185.944 16.243 185.476 16.133 185.036 16.133H184.128V16.5456C184.128 18.911 183.083 20.6989 180.993 21.9091C180.058 22.3492 179.122 22.5967 178.187 22.6517C168.56 22.8168 159.566 23.3394 151.205 24.2195ZM142.376 25.3747C143.036 25.8698 143.531 26.3924 143.861 26.9425C145.401 26.6125 147.464 26.2549 150.049 25.8698V24.3846C145.374 24.9897 142.816 25.3197 142.376 25.3747ZM134.537 19.1036C134.317 18.7185 133.821 18.526 133.051 18.526C132.611 18.526 132.116 18.581 131.566 18.691C129.861 19.1861 127.44 20.0387 124.305 21.249C124.14 21.304 123.782 21.4415 123.232 21.6615C120.811 22.6517 119.574 23.4494 119.519 24.0545C119.519 24.1095 119.546 24.192 119.601 24.302H119.684C120.674 24.302 124.14 23.2293 130.081 21.0839C131.126 20.7539 131.979 20.4513 132.639 20.1763C133.904 19.6262 134.537 19.2686 134.537 19.1036ZM135.939 46.1686V47.984C135.994 50.4044 136.352 51.6422 137.012 51.6972C137.287 51.6972 137.617 48.3691 138.002 41.7128C138.057 40.2275 138.085 39.0173 138.085 38.0821C138.085 36.6519 138.002 35.9092 137.837 35.8542C137.177 35.8542 136.709 36.5693 136.434 37.9996C136.379 38.1646 136.352 38.3022 136.352 38.4122C136.077 41.4378 135.939 44.0232 135.939 46.1686ZM104.831 34.2039C103.621 33.2687 102.988 32.031 102.933 30.4907C102.933 28.6204 103.758 27.2451 105.409 26.3649C105.574 26.2549 105.711 26.1724 105.821 26.1174C118.419 21.1665 128.045 17.7833 134.702 15.968C147.519 12.5573 161.932 10.7145 177.94 10.4394H178.022C180.333 10.4944 182.093 11.5396 183.303 13.575H185.036C187.346 13.575 189.107 14.6202 190.317 16.7106C190.867 17.6458 191.142 18.636 191.142 19.6812C191.142 21.9916 190.097 23.7519 188.007 24.9622C187.071 25.4573 186.109 25.7323 185.119 25.7873C171.641 26.0624 160.391 26.86 151.37 28.1803C151.59 32.6911 151.7 36.1018 151.7 38.4122C151.645 39.7874 151.26 40.5026 150.545 40.5576C149.939 40.5026 149.637 39.3749 149.637 37.1745C149.637 36.9544 149.719 34.0389 149.884 28.4278C149.059 28.5378 147.904 28.7579 146.419 29.0879C145.539 29.253 144.906 29.363 144.521 29.418C144.521 32.3886 144.603 36.6794 144.768 42.2904C144.878 47.6264 144.933 51.6147 144.933 54.2552C144.933 62.0666 144.521 69.0254 143.696 75.1316C143.421 77.112 142.348 78.4872 140.478 79.2574C139.818 79.4774 139.185 79.5874 138.58 79.5874C136.544 79.5874 135.032 78.6522 134.041 76.7819C133.656 76.0118 133.464 75.2141 133.464 74.3889C133.464 70.3182 133.849 60.8839 134.619 46.0861C134.894 40.5301 135.059 35.6892 135.114 31.5634C128.458 33.4338 122.242 35.5517 116.466 37.9171C116.796 39.2373 116.961 40.4476 116.961 41.5478C116.796 43.9682 115.998 45.261 114.568 45.426C112.312 45.426 109.672 42.813 106.646 37.587C106.041 36.4868 105.436 35.3591 104.831 34.2039ZM115.723 35.4416C122.269 32.8561 128.76 30.7107 135.197 29.0054C135.307 28.1803 135.637 27.3826 136.187 26.6125C129.036 28.0978 121.857 30.1606 114.65 32.8011C114.815 33.1312 115.173 34.0114 115.723 35.4416ZM203.016 80H169.303V19.6699H203.016V26.3451H176.907V45.1877H201.496V51.7784H176.907V73.3248H203.016V80ZM190.596 0.235898C191.272 1.47517 192.229 2.88344 193.468 4.46069C194.764 5.98162 196.088 7.50254 197.44 9.02347C198.848 10.4881 200.087 11.7555 201.158 12.8258V13.7552H195.919C194.454 12.854 192.933 11.7555 191.356 10.4599C189.779 9.10797 188.23 7.67154 186.709 6.15061C185.188 7.67154 183.667 9.0798 182.146 10.3754C180.625 11.671 179.132 12.7976 177.668 13.7552H172.598V12.8258C173.668 11.6992 174.851 10.4036 176.147 8.93898C177.499 7.47438 178.794 5.98162 180.034 4.46069C181.273 2.88344 182.259 1.47517 182.991 0.235898H190.596ZM246.18 77.1945C244.42 77.1945 243.209 76.2593 242.549 74.3889C242.494 74.1689 242.439 73.9764 242.384 73.8113H241.972C241.477 73.8113 240.982 73.7288 240.486 73.5638C238.341 72.7936 237.268 69.1905 237.268 62.7543C237.268 61.214 237.433 58.546 237.763 54.7503C236.443 53.8701 234.875 52.5774 233.06 50.872C233.5 59.7287 233.72 64.6796 233.72 65.7248C233.665 67.1001 233.28 67.8152 232.565 67.8702C232.015 67.8152 231.74 66.6875 231.74 64.4871C231.74 62.7818 231.767 60.2788 231.822 56.9782C231.822 53.6776 231.822 51.2021 231.822 49.5518C229.457 47.1313 226.981 44.3533 224.396 41.2177L224.313 41.5478C224.313 54.3652 225.634 66.1099 228.274 76.7819C228.879 79.2024 229.512 81.3753 230.172 83.3006C230.337 83.7957 230.42 84.2908 230.42 84.7859C230.42 86.7663 229.319 88.0865 227.119 88.7466C226.459 88.9667 225.771 89.0767 225.056 89.0767C222.416 89.0217 220.793 87.894 220.188 85.6936C218.097 85.4185 216.804 84.5934 216.309 83.2181C212.349 71.3909 209.516 58.1609 207.81 43.5282C207.15 37.477 206.82 31.921 206.82 26.86C206.82 20.9739 207.563 17.0682 209.048 15.1428C210.258 13.6025 211.964 12.8324 214.164 12.8324C216.97 12.8874 218.895 14.0426 219.94 16.298C223.186 17.0132 224.974 19.8462 225.304 24.7971C231.19 34.2589 235.728 41.2452 238.919 45.7561C240.129 38.1646 241.504 31.921 243.044 27.0251C244.75 21.6891 246.868 18.9935 249.398 18.9385C251.489 18.9385 252.864 19.9837 253.524 22.0741C253.579 22.1841 253.606 22.2667 253.606 22.3217C255.587 22.3217 256.935 23.2844 257.65 25.2097C257.87 25.8148 257.98 26.3924 257.98 26.9425C257.98 27.3826 257.952 27.7127 257.897 27.9327C255.532 38.5497 253.606 49.8268 252.121 61.7641C252.011 62.7543 251.846 64.3496 251.626 66.55C251.241 69.3555 250.966 71.5284 250.801 73.0687C250.526 75.1041 249.453 76.3968 247.583 76.9469C247.143 77.112 246.675 77.1945 246.18 77.1945ZM209.296 28.0978C209.296 30.4082 209.433 31.5909 209.708 31.6459C209.928 31.6459 210.203 30.4082 210.533 27.9327C210.918 25.4022 211.248 22.8993 211.523 20.4238L211.854 16.6281C211.689 16.5181 211.551 16.4631 211.441 16.4631C211.056 16.5731 210.726 16.9582 210.451 17.6183C209.681 19.5987 209.296 23.0918 209.296 28.0978ZM246.345 22.2392C246.51 23.0643 247.005 23.5594 247.83 23.7244C248.71 23.5594 249.233 23.0643 249.398 22.2392C249.398 21.469 249.013 20.9739 248.243 20.7539C248.078 20.6989 247.94 20.6714 247.83 20.6714C247.06 20.6714 246.593 21.0564 246.428 21.8266C246.373 21.9916 246.345 22.1291 246.345 22.2392ZM225.056 86.5187C226.541 86.5187 227.476 86.0786 227.862 85.1985C227.917 85.0334 227.944 84.8959 227.944 84.7859C227.944 84.5108 227.917 84.2908 227.862 84.1258C224.506 74.609 222.526 62.5617 221.92 47.984C221.81 45.7286 221.755 43.5832 221.755 41.5478C221.755 41.4928 221.755 41.4103 221.755 41.3002C221.81 41.0802 221.838 40.9427 221.838 40.8877C221.893 40.3926 221.975 39.5124 222.085 38.2472C221.865 37.9721 221.563 37.532 221.178 36.9269C220.738 36.3768 220.435 35.9642 220.27 35.6892C220.27 35.9092 220.243 36.1293 220.188 36.3493C220.188 36.5693 220.16 36.7619 220.105 36.9269C220.105 37.0919 220.078 37.257 220.023 37.422C220.023 37.587 220.023 37.7246 220.023 37.8346C220.023 37.8896 220.023 37.9721 220.023 38.0821V38.1646C220.023 50.707 221.343 62.3417 223.983 73.0687C224.588 75.5992 225.249 77.8821 225.964 79.9175C226.129 80.4126 226.211 80.9077 226.211 81.4028C226.156 83.3831 225.001 84.7309 222.746 85.446L222.828 85.6111L222.911 85.7761C223.241 86.2162 223.956 86.4637 225.056 86.5187ZM244.695 72.9037C245.3 74.0039 245.795 74.5815 246.18 74.6365C247.335 74.5265 248.023 73.9214 248.243 72.8212C248.298 72.216 248.408 71.3634 248.573 70.2632C248.848 68.2278 249.041 66.7425 249.151 65.8073C250.856 52.0548 252.286 42.2629 253.441 36.4318C253.991 33.6263 254.624 30.6282 255.339 27.4376C255.339 27.3826 255.367 27.3001 255.422 27.1901C255.422 27.0801 255.422 26.9975 255.422 26.9425C255.422 25.9524 255.009 25.2647 254.184 24.8797C253.964 24.8246 253.771 24.7971 253.606 24.7971C251.296 35.3041 249.398 46.6087 247.913 58.711C247.803 59.5912 247.638 60.9939 247.418 62.9193C247.088 65.8348 246.813 68.0903 246.593 69.6856C246.373 71.0058 245.74 72.0785 244.695 72.9037ZM261.28 48.4791C261.28 43.6382 261.033 41.1627 260.538 41.0527C260.318 41.0527 260.098 42.3179 259.878 44.8484C259.713 47.3789 259.603 49.9094 259.548 52.4398L259.382 56.153C259.548 56.263 259.685 56.3181 259.795 56.3181C260.785 56.263 261.28 53.9251 261.28 49.3042V48.4791ZM263.591 92.2123C264.526 92.1573 265.379 91.4146 266.149 89.9844C265.379 90.0394 264.306 90.1494 262.931 90.3144C262.05 90.4245 261.418 90.507 261.033 90.562C261.583 91.6072 262.436 92.1573 263.591 92.2123ZM258.227 40.3926C257.842 40.4476 257.347 40.4751 256.742 40.4751C252.616 40.3651 250.526 38.7147 250.471 35.5241C250.471 33.1037 251.103 31.6184 252.369 31.0683C252.589 30.9583 252.754 30.9033 252.864 30.9033C261.72 30.0231 268.074 29.0604 271.925 28.0152C272.64 27.8502 273.355 27.6577 274.07 27.4376C274.125 27.4376 274.208 27.4101 274.318 27.3551C275.198 27.6852 275.693 28.6754 275.803 30.3257C275.693 32.031 274.098 33.8738 271.017 35.8542C273.438 37.8346 274.648 43.5006 274.648 52.8524C274.648 60.5538 273.988 68.2003 272.667 75.7917C275.913 76.8369 277.563 79.0373 277.618 82.3929C277.618 85.6386 276.821 87.7565 275.225 88.7466C274.84 88.9667 274.483 89.1042 274.153 89.1592C273.713 89.2142 273.08 89.2692 272.255 89.3243C271.32 89.4343 270.632 89.5168 270.192 89.5718C270.357 94.5227 270.44 96.9982 270.44 96.9982C270.33 98.3184 269.917 99.0061 269.202 99.0611C268.652 99.0061 268.377 97.8784 268.377 95.6779C268.377 93.5876 268.404 92.0473 268.459 91.0571C267.139 93.4775 265.516 94.7153 263.591 94.7703C261.28 94.7703 259.63 93.6976 258.64 91.5522C258.53 91.3321 258.447 91.1121 258.392 90.892C253.661 91.5522 248.683 92.6249 243.457 94.1101C243.402 94.1101 243.319 94.1101 243.209 94.1101C243.099 94.1652 243.044 94.1927 243.044 94.1927C241.944 94.1927 241.229 93.2025 240.899 91.2221C240.844 90.782 240.816 90.3419 240.816 89.9019C240.816 87.2064 243.457 84.3183 248.738 81.2377C250.608 80.1925 252.589 79.2299 254.679 78.3497C256.054 69.6581 257.045 60.2513 257.65 50.1294C257.925 45.3435 258.117 42.0979 258.227 40.3926ZM267.469 75.2966H268.542C269.367 75.2966 269.944 75.3241 270.275 75.3791C271.485 68.4478 272.09 60.9389 272.09 52.8524C272.09 47.4064 271.705 43.3631 270.935 40.7226C270.605 39.5124 270.137 38.5772 269.532 37.9171C270.027 40.8326 270.275 44.2433 270.275 48.149C270.275 57.1157 269.339 66.1649 267.469 75.2966ZM274.648 32.5536C274.648 28.1528 276.216 24.8246 279.351 22.5692C281.112 21.304 283.064 20.6714 285.21 20.6714C291.261 20.6714 298.742 23.4219 307.654 28.9229C310.68 30.7933 312.743 32.2785 313.843 33.3787C315.603 29.583 317.006 27.6852 318.051 27.6852C318.876 27.7952 319.316 28.8404 319.371 30.8208C319.371 33.9013 318.766 36.7069 317.556 39.2373C316.566 41.1077 315.438 42.0704 314.173 42.1254C314.173 42.1254 312.302 40.5576 308.562 37.422C305.921 35.3316 303.446 33.5713 301.135 32.141C299.32 31.4809 297.835 31.1508 296.679 31.1508C293.709 31.2608 292.196 32.7461 292.141 35.6067C292.196 40.5026 294.809 44.5733 299.98 47.819C301.74 48.5891 304.518 49.6893 308.314 51.1196C315.08 53.595 319.784 55.6579 322.424 57.3082C329.191 60.3338 333.399 63.7444 335.049 67.5402C335.764 69.1355 336.122 70.8408 336.122 72.6561C336.122 77.442 332.821 80.8802 326.22 82.9706C322.534 84.1258 318.271 84.7034 313.43 84.7034C304.078 84.7034 295.854 82.9155 288.758 79.3399C287.658 78.7898 286.668 78.2397 285.787 77.6896C284.302 77.0845 282.762 76.3143 281.167 75.3791C281.387 79.6699 281.497 82.8605 281.497 84.9509C281.442 86.3262 281.029 87.0413 280.259 87.0963C279.709 87.0413 279.434 85.9136 279.434 83.7132C279.434 82.668 279.461 81.1002 279.516 79.0098C279.516 76.9194 279.516 75.3791 279.516 74.3889C274.18 70.7033 271.485 66.3849 271.43 61.434C271.43 59.4536 272.31 58.0509 274.07 57.2257C274.675 56.8957 275.335 56.7306 276.051 56.7306C276.051 56.7306 279.021 58.546 284.962 62.1767C297.725 69.548 306.966 73.2612 312.687 73.3162C316.648 73.2062 318.656 71.2534 318.711 67.4576C318.656 65.0922 317.281 63.0293 314.585 61.269C312.99 60.6089 310.405 59.6462 306.829 58.3809C299.292 55.6304 293.929 53.32 290.738 51.4496C282.652 47.819 277.646 43.5006 275.721 38.4947C275.005 36.6244 274.648 34.644 274.648 32.5536ZM286.613 22.3217H286.448C280.726 22.4867 277.811 24.8797 277.701 29.5005C277.701 31.921 277.948 33.4613 278.444 34.1214C278.499 34.1764 278.554 34.2039 278.609 34.2039C278.994 34.0939 279.186 33.5713 279.186 32.6361C279.186 32.4161 279.159 32.0585 279.104 31.5634C279.104 31.2884 279.104 31.0958 279.104 30.9858C279.104 26.805 280.479 24.4396 283.229 23.8895C283.78 23.7794 284.522 23.7244 285.457 23.7244H285.705C285.98 23.7244 286.255 23.7244 286.53 23.7244C286.97 23.7794 287.438 23.8069 287.933 23.8069C288.263 23.7519 288.455 23.6694 288.51 23.5594C288.015 22.8443 287.383 22.4317 286.613 22.3217ZM289.583 35.6067C289.583 32.6911 290.683 30.6282 292.884 29.418C293.434 29.143 293.956 28.9504 294.452 28.8404C293.131 28.4003 292.004 28.1803 291.068 28.1803C288.043 28.2903 286.503 29.8306 286.448 32.8011C286.503 36.6519 288.18 39.98 291.481 42.7855C290.216 40.31 289.583 37.9171 289.583 35.6067ZM329.108 63.992C330.043 65.9174 330.511 67.8152 330.511 69.6856C330.511 74.4165 327.32 77.8546 320.939 80C317.143 81.2652 312.743 81.8979 307.737 81.8979H306.829C307.159 81.9529 307.517 81.9804 307.902 81.9804C308.287 82.0354 308.672 82.0629 309.057 82.0629C309.497 82.0629 309.909 82.0629 310.295 82.0629C310.735 82.1179 311.12 82.1454 311.45 82.1454C311.835 82.2004 312.165 82.2279 312.44 82.2279C312.77 82.2279 313.018 82.2279 313.183 82.2279H313.43C321.847 82.1729 327.788 80.6051 331.253 77.5245C332.849 76.0393 333.646 74.4165 333.646 72.6561C333.591 69.3555 332.079 66.4675 329.108 63.992Z" fill="#100F0F"/>
<path d="M51.8109 74.2458C53.4988 75.1249 53.9666 77.0591 52.8684 78.6415C51.7499 80.0482 49.4925 80.3998 47.8248 79.5207C46.1369 78.4657 45.6691 76.5316 46.7673 75.1249C47.8655 73.7183 50.1229 73.1908 51.8109 74.2458ZM6.43932 38.939L6.41898 45.8139L61.3285 76.8832L68.6091 74.2458L66.9008 70.7292L61.7353 72.8391C61.7353 72.8391 17.767 47.8536 10.6694 43.8446L10.6897 38.9565L6.43932 38.939ZM55.6545 12.5468C67.7346 14.4457 80.2215 19.1756 91 26.2088L57.3222 24.4505L51.3838 30.3584L62.6097 46.2359L57.8712 64.8388L50.2653 60.7595L50.6923 46.3942L41.1137 35.7037L39.1207 45.2689L25.1289 47.2909L16.9535 43.3347L28.0981 39.5544C22.6071 31.8178 29.0946 24.4329 29.0946 24.4329L28.3625 22.2702L7.67987 36.0553C9.75423 22.868 19.3736 15.3952 32.1655 12.7226C32.8976 17.7689 37.8801 21.6724 43.8998 21.6724C50.0009 21.6724 55.0241 17.6634 55.6545 12.5468ZM13.1098 52.2845C14.7774 53.2164 15.2452 55.1506 14.147 56.5924C13.0691 58.0166 10.8321 58.421 9.16446 57.4715C7.51717 56.5396 7.04942 54.6055 8.12728 53.1812C9.22547 51.7394 11.4422 51.335 13.1098 52.2845ZM4.97506 29.7606C6.33763 19.2635 12.8454 13.9358 19.0075 11.2632C25.1696 8.57299 31.0063 8.50266 31.0063 8.50266C12.276 6.11136 3.0634 11.439 4.97506 29.7606ZM0.216238 19.1932C1.09072 12.4237 5.3818 8.69607 9.44917 6.65643C13.5165 4.6168 17.3806 4.26514 17.3806 4.26514C5.32079 2.71783 -1.30903 7.97516 0.216238 19.1932ZM43.8998 4.88054C48.0892 4.88054 51.4855 7.81692 51.4855 11.439C51.4855 15.0611 48.0892 17.9975 43.8998 17.9975C39.7104 17.9975 36.3142 15.0611 36.3142 11.439C36.3142 7.81692 39.7104 4.88054 43.8998 4.88054Z" fill="#060606"/>
</svg>
