<svg width="587" height="91" viewBox="0 0 587 91" fill="none" xmlns="http://www.w3.org/2000/svg">
<path d="M4.16702 25.1334C4.16702 20.7326 5.73481 17.4045 8.8704 15.1491C10.6307 13.8838 12.5836 13.2512 14.729 13.2512C20.7801 13.2512 28.2615 16.0017 37.1732 21.5027C40.1988 23.3731 42.2617 24.8584 43.3619 25.9586C45.1222 22.1629 46.525 20.265 47.5702 20.265C48.3953 20.375 48.8354 21.4202 48.8904 23.4006C48.8904 26.4812 48.2853 29.2867 47.0751 31.8172C46.0849 33.6875 44.9572 34.6502 43.6919 34.7052C43.6919 34.7052 41.8216 33.1374 38.0809 30.0018C35.4404 27.9114 32.9649 26.1511 30.6545 24.7208C28.8391 24.0607 27.3539 23.7307 26.1987 23.7307C23.2281 23.8407 21.7153 25.326 21.6603 28.1865C21.7153 33.0824 24.3283 37.1532 29.4993 40.3988C31.2596 41.1689 34.0376 42.2691 37.8333 43.6994C44.5996 46.1749 49.303 48.2378 51.9435 49.8881C58.7098 52.9136 62.918 56.3243 64.5684 60.12C65.2835 61.7153 65.6411 63.4206 65.6411 65.236C65.6411 70.0219 62.3404 73.46 55.7392 75.5504C52.0535 76.7056 47.7902 77.2832 42.9493 77.2832C33.5975 77.2832 25.3735 75.4954 18.2772 71.9197C17.177 71.3696 16.1868 70.8195 15.3066 70.2694C13.8213 69.6643 12.281 68.8941 10.6857 67.959C10.9058 72.2498 11.0158 75.4404 11.0158 77.5308C10.9608 78.906 10.5482 79.6212 9.77807 79.6762C9.22797 79.6212 8.95292 78.4934 8.95292 76.293C8.95292 75.2478 8.98042 73.68 9.03543 71.5896C9.03543 69.4993 9.03543 67.959 9.03543 66.9688C3.69943 63.2831 1.00392 58.9648 0.948912 54.0138C0.948912 52.0335 1.82908 50.6307 3.58941 49.8056C4.19452 49.4755 4.85465 49.3105 5.56978 49.3105C5.56978 49.3105 8.54034 51.1258 14.4815 54.7565C27.2438 62.1279 36.4856 65.8411 42.2067 65.8961C46.1674 65.7861 48.1753 63.8332 48.2303 60.0375C48.1753 57.672 46.8 55.6091 44.1045 53.8488C42.5092 53.1887 39.9237 52.226 36.3481 50.9608C28.8116 48.2103 23.4481 45.8998 20.2575 44.0295C12.171 40.3988 7.16508 36.0805 5.23972 31.0745C4.52458 29.2042 4.16702 27.2238 4.16702 25.1334ZM16.1318 14.9015H15.9667C10.2457 15.0665 7.33011 17.4595 7.22009 22.0804C7.22009 24.5008 7.46764 26.0411 7.96273 26.7012C8.01774 26.7562 8.07275 26.7837 8.12776 26.7837C8.51283 26.6737 8.70537 26.1511 8.70537 25.2159C8.70537 24.9959 8.67786 24.6383 8.62285 24.1432C8.62285 23.8682 8.62285 23.6757 8.62285 23.5656C8.62285 19.3848 9.99811 17.0194 12.7486 16.4693C13.2987 16.3593 14.0414 16.3043 14.9765 16.3043H15.2241C15.4991 16.3043 15.7742 16.3043 16.0492 16.3043C16.4893 16.3593 16.9569 16.3868 17.452 16.3868C17.7821 16.3318 17.9746 16.2493 18.0296 16.1392C17.5345 15.4241 16.9019 15.0115 16.1318 14.9015ZM19.1023 28.1865C19.1023 25.271 20.2025 23.2081 22.4029 21.9978C22.953 21.7228 23.4756 21.5302 23.9707 21.4202C22.6505 20.9801 21.5228 20.7601 20.5876 20.7601C17.562 20.8701 16.0217 22.4104 15.9667 25.381C16.0217 29.2317 17.6996 32.5598 21.0002 35.3653C19.7349 32.8899 19.1023 30.4969 19.1023 28.1865ZM58.6272 56.5718C59.5624 58.4972 60.03 60.395 60.03 62.2654C60.03 66.9963 56.8394 70.4344 50.4582 72.5798C46.6625 73.8451 42.2617 74.4777 37.2557 74.4777H36.3481C36.6781 74.5327 37.0357 74.5602 37.4208 74.5602C37.8058 74.6152 38.1909 74.6427 38.576 74.6427C39.0161 74.6427 39.4286 74.6427 39.8137 74.6427C40.2538 74.6977 40.6389 74.7252 40.9689 74.7252C41.354 74.7802 41.6841 74.8078 41.9591 74.8078C42.2892 74.8078 42.5367 74.8078 42.7018 74.8078H42.9493C51.3659 74.7527 57.307 73.1849 60.7726 70.1044C62.3679 68.6191 63.1656 66.9963 63.1656 65.236C63.1106 61.9353 61.5978 59.0473 58.6272 56.5718ZM59.2049 35.6954C59.2049 35.6954 58.7098 31.7622 57.7196 23.8957C57.2245 21.1452 56.8119 19.3848 56.4818 18.6147C55.9867 18.0096 55.7392 18.5322 55.7392 20.1825C55.7392 24.0332 56.3168 28.1315 57.472 32.4773C57.7471 33.4675 57.9946 34.2376 58.2147 34.7877C58.2697 34.9528 58.3797 35.1178 58.5447 35.2828C58.7098 35.4479 58.8473 35.5854 58.9573 35.6954C59.1223 35.7504 59.2049 35.7504 59.2049 35.6954ZM82.6393 11.8484C82.8043 12.6736 83.2994 13.1687 84.1245 13.3337C85.0047 13.1687 85.5273 12.6736 85.6923 11.8484C85.6923 11.0783 85.3073 10.5832 84.5371 10.3632C84.3721 10.3081 84.2346 10.2806 84.1245 10.2806C83.3544 10.2806 82.8868 10.6657 82.7218 11.4359C82.6668 11.6009 82.6393 11.7384 82.6393 11.8484ZM110.199 75.2203C110.199 78.0809 108.934 80.3913 106.404 82.1516C104.918 83.1968 103.323 83.7194 101.618 83.7194C98.8123 83.6644 96.6669 82.6742 95.1816 80.7489C92.6511 77.5033 90.5882 73.0474 88.9929 67.3814C87.7827 63.0906 86.655 60.23 85.6098 58.7997C83.2444 55.7192 78.9811 54.0689 72.8199 53.8488C73.315 60.12 73.5625 65.4835 73.5625 69.9393C73.5075 76.4306 71.9397 79.7037 68.8592 79.7587C66.7688 79.7587 65.3385 78.7685 64.5684 76.7881C64.4033 76.348 64.2933 75.908 64.2383 75.4679C63.2481 66.5562 61.2952 56.3793 58.3797 44.9371C55.7942 34.8703 53.8964 26.5912 52.6861 20.1C52.5761 19.3298 52.5211 18.7247 52.5211 18.2846C52.5211 14.4889 54.0614 11.6009 57.142 9.62051C58.8473 8.52031 60.7451 7.9702 62.8355 7.9702C65.531 8.08022 68.089 16.2768 70.5095 32.5598C74.7453 29.9193 77.4958 27.3613 78.761 24.8859C79.4762 23.4006 79.9713 21.6403 80.2463 19.6049C80.2463 19.5499 80.2738 19.4674 80.3288 19.3573C80.4938 18.0371 80.5764 15.8367 80.5764 12.7561C80.5764 10.8858 81.4565 9.51049 83.2169 8.63033C83.932 8.30026 84.6471 8.13523 85.3623 8.13523C89.9831 8.24525 92.3211 10.4732 92.3761 14.819C92.3761 15.8092 92.046 17.0469 91.3859 18.5322V18.7797C91.826 19.7699 92.046 20.8426 92.046 21.9978C92.046 22.4929 91.881 23.2631 91.5509 24.3083C91.826 29.5893 91.9635 32.6973 91.9635 33.6325C91.9085 35.0078 91.4959 35.7229 90.7258 35.7779C90.1757 35.7229 89.9006 34.5952 89.9006 32.3948C89.9006 30.3594 89.9281 28.8466 89.9831 27.8564C88.0028 31.2121 84.8122 35.2553 80.4113 39.9862C87.9477 40.9764 93.4488 43.2043 96.9144 46.67C98.1797 47.9352 100.133 50.6307 102.773 54.7565C104.753 57.8371 106.624 60.395 108.384 62.4304C109.814 64.1357 110.529 66.0061 110.529 68.0415C110.474 69.4167 110.117 70.7095 109.457 71.9197C109.952 73.1299 110.199 74.2301 110.199 75.2203ZM75.1303 39.4911C75.3504 39.4911 75.6804 39.5186 76.1205 39.5736C76.6156 39.6286 76.9732 39.6562 77.1932 39.6562C82.2542 34.4852 85.8574 29.9743 88.0028 26.1236C88.9929 24.1432 89.488 22.7955 89.488 22.0804C87.4527 25.271 84.6471 28.7366 81.0715 32.4773C80.0263 34.8978 78.0459 37.2357 75.1303 39.4911ZM72.4073 48.8154C72.5724 50.4657 72.6549 51.2908 72.6549 51.2908C80.2463 51.5109 85.4448 53.7938 88.2503 58.1396C88.6904 58.9648 89.103 59.7899 89.488 60.6151C88.2228 56.2693 87.1776 53.4637 86.3524 52.1985C85.9674 51.6484 85.5823 51.1533 85.1972 50.7132C81.5115 49.8331 77.5508 49.283 73.315 49.0629C72.9299 49.0079 72.6274 48.9254 72.4073 48.8154ZM107.559 74.3952C105.964 75.7704 104.093 76.4581 101.948 76.4581C99.1423 76.4031 97.0245 75.4404 95.5942 73.57C93.7788 71.2046 92.3211 68.6191 91.2209 65.8136L91.3034 65.9786V66.1436C92.7887 71.5896 94.659 75.8254 96.9144 78.851C97.0245 79.016 97.1345 79.1536 97.2445 79.2636C98.1797 80.4738 99.6374 81.1064 101.618 81.1614C103.763 81.1614 105.469 80.1713 106.734 78.1909C107.339 77.2557 107.641 76.2655 107.641 75.2203C107.641 74.8353 107.614 74.5602 107.559 74.3952ZM176.789 49.4755C176.789 51.4559 175.909 52.8586 174.149 53.6838C173.489 54.0138 172.829 54.1789 172.169 54.1789C171.508 54.1789 170.931 54.0964 170.436 53.9313C167.355 52.8861 164.962 52.1985 163.257 51.8684C165.842 56.6543 168.428 62.1279 171.013 68.289C171.233 68.8391 171.343 69.4167 171.343 70.0219C171.343 72.0022 170.463 73.405 168.703 74.2301C168.043 74.5602 167.383 74.7252 166.723 74.7252H166.392C165.512 76.3205 164.137 77.1457 162.267 77.2007C161.827 77.2007 161.497 77.1732 161.277 77.1182C161.387 79.6487 161.442 81.519 161.442 82.7292C161.332 84.0495 160.919 84.7371 160.204 84.7921C159.654 84.7371 159.379 83.6369 159.379 81.4915V76.293C158.829 75.7979 158.361 75.1653 157.976 74.3952C154.015 64.8234 150.412 56.8194 147.166 50.3832C146.726 50.3832 145.984 50.3832 144.938 50.3832C143.893 50.3282 143.123 50.3007 142.628 50.3007C136.907 50.3007 131.708 50.4932 127.033 50.8783C127.088 52.4736 127.198 54.8665 127.363 58.0571C127.638 62.5129 127.775 65.8686 127.775 68.124C127.665 69.4442 127.28 70.1319 126.62 70.1869C126.07 70.1319 125.795 69.0042 125.795 66.8037C125.795 64.9884 125.822 62.3204 125.877 58.7997C125.877 55.3341 125.877 52.7211 125.877 50.9608C125.712 50.9608 125.465 50.9883 125.135 51.0433C124.805 51.0983 124.557 51.1258 124.392 51.1258C124.337 51.951 124.282 53.3262 124.227 55.2516C124.007 61.2477 123.347 65.1809 122.247 67.0513C121.312 68.5916 119.991 69.3617 118.286 69.3617H117.873C116.883 71.012 115.535 71.8647 113.83 71.9197C111.905 71.9197 110.502 71.012 109.622 69.1967C109.347 68.5366 109.209 67.8765 109.209 67.2163C109.209 63.4756 109.319 60.175 109.539 57.3145C108.494 59.4049 107.586 60.6976 106.816 61.1927C106.101 61.5778 105.304 61.7703 104.423 61.7703C102.498 61.7703 101.123 60.9176 100.298 59.2123C99.9675 58.4972 99.8025 57.8096 99.8025 57.1494V56.5718C99.9125 50.6307 103.818 46.3399 111.52 43.6994C113.885 32.5323 117.158 25.0784 121.339 21.3377C122.659 20.1825 123.98 19.4949 125.3 19.2748C127.115 17.5695 128.848 16.6893 130.498 16.6343C136.989 16.6343 144.828 23.3456 154.015 36.7681C155.06 38.3084 156.106 39.8762 157.151 41.4715C163.752 42.2416 169.308 43.4519 173.819 45.1022C175.469 45.7623 176.432 46.9725 176.707 48.7329C176.762 49.0079 176.789 49.2555 176.789 49.4755ZM114.49 42.4617C114.49 42.4617 115.728 39.1336 118.203 32.4773C118.974 30.1119 119.359 28.5441 119.359 27.7739C119.304 27.5539 119.249 27.4164 119.194 27.3613C118.588 27.3613 117.461 29.6718 115.81 34.2926C114.655 37.6483 114.078 40.0412 114.078 41.4715C114.078 41.9666 114.215 42.2966 114.49 42.4617ZM168.868 70.0219C168.868 69.7468 168.813 69.4718 168.703 69.1967C166.117 63.1456 163.229 57.2044 160.039 51.3734C158.774 51.1533 157.701 51.0158 156.821 50.9608C160.671 57.727 163.917 64.3283 166.558 70.7645C166.778 71.3146 166.888 71.7822 166.888 72.1673C167.823 72.1122 168.455 71.5896 168.785 70.5995C168.84 70.3794 168.868 70.1869 168.868 70.0219ZM141.72 40.5638C136.989 33.0824 133.029 29.2042 129.838 28.9291C128.133 31.5146 126.785 35.5579 125.795 41.0589C129.866 40.7289 134.762 40.5638 140.483 40.5638H141.72ZM121.669 41.4715C121.834 41.4165 122.082 41.389 122.412 41.389C122.742 41.334 122.989 41.3065 123.154 41.3065C123.925 36.6856 124.86 33.1374 125.96 30.662C124.2 32.8074 122.769 36.4105 121.669 41.4715ZM120.184 51.7034C119.964 53.4637 119.826 55.004 119.771 56.3243C119.716 56.9294 119.661 57.9471 119.606 59.3774C119.441 62.843 119.194 65.3185 118.864 66.8037C119.799 66.4187 120.459 65.346 120.844 63.5856C121.064 62.5404 121.339 59.3223 121.669 53.9313C121.724 52.9411 121.779 52.116 121.834 51.4559C121.614 51.4559 121.339 51.5109 121.009 51.6209C120.624 51.6759 120.349 51.7034 120.184 51.7034ZM150.88 40.8939C151.21 40.8939 151.732 40.9489 152.447 41.0589C153.162 41.1139 153.685 41.1414 154.015 41.1414C147.964 31.9547 142.518 25.6285 137.677 22.1629C134.982 20.1825 132.589 19.1923 130.498 19.1923C129.893 19.2473 129.371 19.3848 128.93 19.6049C131.406 20.32 134.101 21.9153 137.017 24.3908C138.447 24.9959 139.988 26.1236 141.638 27.7739C143.893 30.0293 146.644 33.8801 149.889 39.3261C149.999 39.4911 150.164 39.7387 150.384 40.0687C150.605 40.4538 150.77 40.7289 150.88 40.8939ZM205.752 16.7994V18.2846C215.324 16.8544 226.629 16.0292 239.666 15.8092C241.152 15.8092 242.224 15.094 242.884 13.6638C243.049 13.1687 243.132 12.7011 243.132 12.261C243.132 10.7207 242.417 9.64802 240.986 9.0429C240.491 8.82286 240.024 8.71284 239.584 8.71284H238.676V9.12542C238.676 11.4909 237.631 13.2787 235.54 14.4889C234.605 14.929 233.67 15.1766 232.735 15.2316C223.108 15.3966 214.114 15.9192 205.752 16.7994ZM196.923 17.9546C197.583 18.4497 198.078 18.9723 198.408 19.5224C199.949 19.1923 202.012 18.8347 204.597 18.4497V16.9644C199.921 17.5695 197.363 17.8996 196.923 17.9546ZM189.084 11.6834C188.864 11.2983 188.369 11.1058 187.599 11.1058C187.159 11.1058 186.664 11.1608 186.114 11.2708C184.408 11.7659 181.988 12.6186 178.852 13.8288C178.687 13.8838 178.33 14.0213 177.78 14.2414C175.359 15.2316 174.121 16.0292 174.066 16.6343C174.066 16.6893 174.094 16.7719 174.149 16.8819H174.231C175.222 16.8819 178.687 15.8092 184.628 13.6638C185.674 13.3337 186.526 13.0312 187.186 12.7561C188.452 12.206 189.084 11.8484 189.084 11.6834ZM190.487 38.7485V40.5638C190.542 42.9843 190.9 44.222 191.56 44.277C191.835 44.277 192.165 40.9489 192.55 34.2926C192.605 32.8074 192.632 31.5971 192.632 30.662C192.632 29.2317 192.55 28.4891 192.385 28.434C191.725 28.434 191.257 29.1492 190.982 30.5794C190.927 30.7445 190.9 30.882 190.9 30.992C190.625 34.0176 190.487 36.6031 190.487 38.7485ZM159.379 26.7837C158.168 25.8486 157.536 24.6108 157.481 23.0705C157.481 21.2002 158.306 19.8249 159.956 18.9448C160.121 18.8347 160.259 18.7522 160.369 18.6972C172.966 13.7463 182.593 10.3632 189.249 8.54781C202.067 5.13717 216.479 3.29432 232.487 3.01927H232.57C234.88 3.07428 236.641 4.11948 237.851 6.15486H239.584C241.894 6.15486 243.654 7.20006 244.865 9.29045C245.415 10.2256 245.69 11.2158 245.69 12.261C245.69 14.5714 244.645 16.3318 242.554 17.542C241.619 18.0371 240.656 18.3121 239.666 18.3672C226.189 18.6422 214.939 19.4399 205.917 20.7601C206.137 25.271 206.247 28.6816 206.247 30.992C206.192 32.3673 205.807 33.0824 205.092 33.1374C204.487 33.0824 204.185 31.9547 204.185 29.7543C204.185 29.5343 204.267 26.6187 204.432 21.0077C203.607 21.1177 202.452 21.3377 200.966 21.6678C200.086 21.8328 199.454 21.9428 199.069 21.9978C199.069 24.9684 199.151 29.2592 199.316 34.8703C199.426 40.2063 199.481 44.1945 199.481 46.835C199.481 54.6465 199.069 61.6053 198.243 67.7114C197.968 69.6918 196.896 71.067 195.025 71.8372C194.365 72.0572 193.733 72.1673 193.128 72.1673C191.092 72.1673 189.579 71.2321 188.589 69.3617C188.204 68.5916 188.012 67.7939 188.012 66.9688C188.012 62.898 188.397 53.4637 189.167 38.666C189.442 33.1099 189.607 28.269 189.662 24.1432C183.006 26.0136 176.789 28.1315 171.013 30.4969C171.343 31.8172 171.508 33.0274 171.508 34.1276C171.343 36.5481 170.546 37.8408 169.115 38.0058C166.86 38.0058 164.22 35.3929 161.194 30.1669C160.589 29.0667 159.984 27.939 159.379 26.7837ZM170.271 28.0215C176.817 25.436 183.308 23.2906 189.744 21.5853C189.854 20.7601 190.184 19.9625 190.735 19.1923C183.583 20.6776 176.404 22.7405 169.198 25.381C169.363 25.711 169.721 26.5912 170.271 28.0215ZM231.745 8.71284C231.69 8.32777 231.36 8.10773 230.755 8.05272C227.564 8.05272 224.373 9.45548 221.183 12.261C218.817 14.4064 217.057 16.9644 215.902 19.9349V20.0175C215.902 20.6776 216.067 21.0077 216.397 21.0077C216.892 21.0077 217.387 20.6226 217.882 19.8524C217.937 19.6874 217.992 19.5774 218.047 19.5224C219.587 15.7817 222.888 12.8111 227.949 10.6107C228.994 10.1706 229.929 9.84055 230.755 9.62051C231.36 9.34546 231.69 9.0429 231.745 8.71284ZM255.592 43.6994C255.482 42.4892 254.629 41.774 253.034 41.554C252.484 43.3693 251.273 44.4696 249.403 44.8546C249.073 44.9096 248.77 44.9371 248.495 44.9371C248.385 44.9371 248.275 44.9646 248.165 45.0197C248 45.0197 247.89 45.0197 247.835 45.0197V46.3399C249.761 46.0098 251.631 45.8448 253.446 45.8448C254.381 45.8448 255.042 45.3772 255.427 44.4421C255.537 44.167 255.592 43.9195 255.592 43.6994ZM258.15 43.6994C258.15 45.5698 257.297 46.9725 255.592 47.9077C254.877 48.2378 254.161 48.4028 253.446 48.4028C251.356 48.4028 249.541 48.5403 248 48.8154C248.165 51.2358 248.248 53.6563 248.248 56.0767C248.193 57.452 247.808 58.1671 247.093 58.2221C246.543 58.1671 246.267 57.0394 246.267 54.839V49.1454C239.776 50.6307 235.073 53.2437 232.157 56.9844C230.672 58.9648 229.929 61.0552 229.929 63.2556C229.929 63.8057 230.039 64.4108 230.259 65.0709C232.075 65.456 234.578 65.6485 237.768 65.6485C242.004 65.6485 248.468 64.5208 257.16 62.2654C259.965 61.4953 262.028 60.9727 263.348 60.6976C263.788 60.5876 264.338 60.4501 264.998 60.285C266.484 59.9 267.749 59.7074 268.794 59.7074C271.325 59.7074 273.168 60.7801 274.323 62.9255C274.378 63.0355 274.433 63.1181 274.488 63.1731C276.798 63.3931 278.449 64.5758 279.439 66.7212C279.824 67.5464 280.016 68.3715 280.016 69.1967C280.016 71.4521 278.999 73.1849 276.963 74.3952C276.028 74.8903 275.093 75.1653 274.158 75.2203C262.11 77.3657 251.631 78.4384 242.719 78.4384C233.918 78.3834 227.674 76.4306 223.988 72.5798C218.487 69.9393 215.709 65.7035 215.654 59.8724C215.709 54.2614 218.597 49.0354 224.318 44.1945C223.328 43.3693 222.833 42.9568 222.833 42.9568C218.102 40.6463 214.967 37.1807 213.426 32.5598C212.821 30.8545 212.519 29.0942 212.519 27.2788C212.519 20.7876 215.187 15.3691 220.523 11.0233C225.529 6.95251 231.387 4.91713 238.098 4.91713C241.509 4.97214 244.177 6.23738 246.102 8.71284C250.448 9.92307 252.979 13.4712 253.694 19.3573C253.804 20.3475 253.859 21.3652 253.859 22.4104C253.859 24.2808 253.006 25.6835 251.301 26.6187C250.586 26.9488 249.871 27.1138 249.156 27.1138C247.175 27.1138 245.745 26.2061 244.865 24.3908C244.755 24.1157 244.672 23.8682 244.617 23.6481H244.205C242.279 23.6481 240.904 22.7955 240.079 21.0902C239.749 20.375 239.584 19.6874 239.584 19.0273C239.584 18.9173 239.584 18.7247 239.584 18.4497C239.529 18.2296 239.501 18.0646 239.501 17.9546C234.715 18.7797 231.167 20.9251 228.857 24.3908C227.536 26.3712 226.876 28.4616 226.876 30.662C226.931 32.3123 227.344 33.77 228.114 35.0353C230.48 35.7504 233.037 36.108 235.788 36.108C236.778 36.108 239.776 35.943 244.782 35.6129C245.607 35.5579 246.405 35.5304 247.175 35.5304C250.531 35.5854 252.511 36.7406 253.116 38.996C256.252 39.6562 257.93 41.2239 258.15 43.6994ZM246.35 45.1022C240.079 45.5973 234.798 47.4126 230.507 50.5482C226.931 53.2987 225.116 56.4068 225.061 59.8724C225.116 61.7428 225.886 63.1456 227.371 64.0807V63.2556C227.426 59.6249 228.994 56.3518 232.075 53.4362C235.595 50.1906 240.354 47.9352 246.35 46.67V45.1022ZM275.148 65.8961C275.093 68.1515 274.02 69.8568 271.93 71.012C271.05 71.5071 270.142 71.7822 269.207 71.8372C257.16 73.9826 246.68 75.0553 237.768 75.0553C236.723 75.0553 235.293 75.0003 233.478 74.8903C236.338 75.5504 239.419 75.8805 242.719 75.8805C251.796 75.8805 262.11 74.8353 273.663 72.7449C273.718 72.7449 273.8 72.7174 273.91 72.6623C274.02 72.6623 274.075 72.6623 274.075 72.6623C275.56 72.6073 276.606 71.8922 277.211 70.5169C277.431 70.0219 277.541 69.5818 277.541 69.1967C277.541 67.7114 276.853 66.6662 275.478 66.0611C275.313 66.0061 275.203 65.9511 275.148 65.8961ZM248 12.5086C248.55 14.4339 248.825 16.6068 248.825 19.0273C248.77 20.5676 248.165 21.8053 247.01 22.7405C247.175 23.5656 247.698 24.1432 248.578 24.4733C248.798 24.5283 248.99 24.5558 249.156 24.5558C250.091 24.5558 250.751 24.0882 251.136 23.1531C251.246 22.878 251.301 22.6305 251.301 22.4104C251.246 17.6795 250.146 14.3789 248 12.5086ZM224.318 30.662C224.318 25.326 226.849 21.1452 231.91 18.1196C234.165 16.7994 236.613 15.9192 239.254 15.4791C238.924 14.709 238.539 14.2964 238.098 14.2414C232.982 14.2414 228.802 15.8642 225.556 19.1098C223.136 21.4752 221.925 24.1982 221.925 27.2788C221.98 29.7543 222.888 31.7622 224.648 33.3025C224.428 32.2023 224.318 31.3221 224.318 30.662ZM284.06 24.1432C288.13 18.9723 296.327 14.3514 308.649 10.2806C308.979 10.1706 309.282 10.0606 309.557 9.95057C310.822 9.45548 311.482 9.09791 311.537 8.87787C311.482 8.43779 311.18 8.19024 310.63 8.13523C307.879 8.13523 303.643 9.51049 297.922 12.261C290.716 15.7267 285.902 19.3298 283.482 23.0705C283.317 23.4006 283.234 23.7307 283.234 24.0607C283.234 24.3908 283.317 24.5558 283.482 24.5558C283.702 24.4458 283.895 24.3083 284.06 24.1432ZM295.694 71.5896C295.584 71.5896 295.474 71.5621 295.364 71.5071C295.144 71.4521 295.007 71.4246 294.952 71.4246H294.457C293.466 71.4246 292.779 71.9197 292.394 72.9099C292.339 73.1299 292.311 73.3225 292.311 73.4875C292.311 74.3677 292.724 75.0278 293.549 75.4679C293.714 75.5779 293.851 75.6329 293.961 75.6329H294.044V75.2203C294.099 73.7351 294.649 72.5248 295.694 71.5896ZM295.199 22.0804C293.879 22.7955 292.696 23.5106 291.651 24.2258C291.926 30.992 292.064 35.0353 292.064 36.3555C291.954 37.6758 291.568 38.3634 290.908 38.4184C290.358 38.3634 290.083 37.2357 290.083 35.0353C290.083 34.9253 290.166 31.6521 290.331 25.2159C287.415 27.4714 285.655 29.4792 285.05 31.2396C284.5 32.8349 283.344 33.8251 281.584 34.2101C281.254 34.2651 280.951 34.2926 280.676 34.2926C279.191 34.2376 277.981 33.6875 277.046 32.6423H276.468C274.598 32.6423 273.195 31.7897 272.26 30.0844C271.93 29.3692 271.765 28.6541 271.765 27.939C271.765 27.3888 271.847 26.8663 272.012 26.3712C273.883 21.1452 278.999 16.0842 287.36 11.1883C296.602 5.74228 306.614 2.24913 317.396 0.70884C320.421 0.268757 323.337 0.0487156 326.142 0.0487156C330.048 0.0487156 333.184 0.791355 335.549 2.27663C341.38 3.65189 344.323 7.36509 344.378 13.4162C344.323 26.4537 336.127 38.5284 319.789 49.6405C326.115 50.1356 330.791 51.2358 333.816 52.9411C338.877 54.3714 341.435 56.6268 341.49 59.7074C341.49 66.5837 337.475 72.0572 329.443 76.128C323.007 79.3186 315.856 80.9139 307.989 80.9139C304.358 80.9139 300.893 80.5288 297.592 79.7587C296.767 79.5386 296.024 79.1261 295.364 78.5209C291.954 78.1359 290.111 76.6781 289.836 74.1476C289.781 73.9276 289.753 73.7075 289.753 73.4875C289.753 71.5621 290.661 70.1594 292.476 69.2792C293.136 69.0042 293.796 68.8666 294.457 68.8666H294.787V68.7841C294.787 66.2536 294.979 63.0355 295.364 59.1298C293.604 59.0198 292.284 58.5247 291.403 57.6445C290.468 56.5993 289.973 55.4716 289.918 54.2614C289.973 52.281 290.936 50.8508 292.806 49.9706C294.291 49.2555 295.474 48.6778 296.354 48.2378C296.464 46.7525 296.519 44.6621 296.519 41.9666C296.519 34.4302 296.079 27.8014 295.199 22.0804ZM304.028 18.1196C305.404 25.601 306.146 33.715 306.256 42.4617C316.323 35.8604 322.897 29.5893 325.977 23.6481C326.528 22.5479 326.94 21.5027 327.215 20.5126C326.72 18.9723 324.85 17.8721 321.604 17.2119C320.504 16.9919 319.459 16.8819 318.469 16.8819C317.918 16.8269 317.616 16.6893 317.561 16.4693C317.616 15.8092 318.854 15.4791 321.274 15.4791C324.025 15.5341 326.115 16.1667 327.545 17.377C327.435 15.9467 326.803 14.764 325.647 13.8288C324.492 13.6088 323.034 13.4987 321.274 13.4987C317.973 13.4987 312.527 14.929 304.936 17.7895C304.606 17.8996 304.303 18.0096 304.028 18.1196ZM306.256 46.835C316.653 40.6188 324.025 34.4852 328.37 28.434C330.626 25.1884 331.754 22.2454 331.754 19.6049C331.699 17.8446 331.038 16.4693 329.773 15.4791C329.993 16.1942 330.103 16.9919 330.103 17.8721C330.048 20.5126 329.086 23.4556 327.215 26.7012C323.474 32.6423 316.488 38.886 306.256 45.4322V46.835ZM296.024 52.1985C296.024 52.0885 296.024 51.9235 296.024 51.7034C296.079 51.4834 296.107 51.3183 296.107 51.2083C295.117 51.7034 294.374 52.061 293.879 52.281C292.999 52.7211 292.531 53.3812 292.476 54.2614C292.476 54.8115 292.669 55.2791 293.054 55.6642L293.136 55.7467C293.466 56.0767 293.769 56.2693 294.044 56.3243C294.099 56.3243 294.181 56.3518 294.291 56.4068C294.291 56.3518 294.264 56.2693 294.209 56.1593C294.209 56.0492 294.209 55.9667 294.209 55.9117C294.264 54.3714 294.869 53.1337 296.024 52.1985ZM305.431 60.7801C304.881 64.8509 304.386 67.8765 303.946 69.8568C309.997 69.8018 316.021 68.6466 322.017 66.3912C326.142 64.8509 328.233 63.3931 328.288 62.0179C328.233 61.6878 328.15 61.4402 328.04 61.2752C324.795 60.7251 320.366 60.4501 314.755 60.4501C312.445 60.4501 309.337 60.5601 305.431 60.7801ZM276.056 30.0844V29.6718C276.056 29.0667 276.138 28.5166 276.303 28.0215C278.228 22.7405 283.344 17.652 291.651 12.7561C298.527 8.74035 306.064 5.74228 314.26 3.76191C303.863 5.79729 294.512 9.48299 286.205 14.819C283.344 16.6893 280.951 18.5872 279.026 20.5126C276.661 22.878 275.12 25.1059 274.405 27.1963C274.35 27.4164 274.323 27.6639 274.323 27.939C274.323 28.8741 274.79 29.5618 275.725 30.0018C275.891 30.0568 276.001 30.0844 276.056 30.0844ZM316.818 70.5995C323.584 69.3342 328.37 67.6564 331.176 65.566C332.056 64.8509 332.524 64.2183 332.579 63.6682C332.469 63.063 331.891 62.5129 330.846 62.0179C330.846 63.3931 330.048 64.7134 328.453 65.9786C328.288 66.0886 328.205 66.1436 328.205 66.1436C325.84 67.7389 322.044 69.2242 316.818 70.5995ZM369.711 26.4537C367.84 26.4537 366.438 25.491 365.502 23.5656C365.502 23.4556 365.475 23.3731 365.42 23.3181C357.553 26.1786 352.685 30.772 350.815 37.0982C350.375 38.7485 350.154 40.4263 350.154 42.1316C350.154 48.0177 352.437 53.3537 357.003 58.1396C362.284 63.6407 368.913 66.5837 376.89 66.9688C377.385 66.9688 377.852 66.9688 378.292 66.9688C385.279 66.9688 390.257 64.6583 393.228 60.0375C394.933 57.342 395.786 54.0964 395.786 50.3007C395.786 44.3595 393.723 39.0785 389.597 34.4577C384.701 29.0667 378.402 26.3712 370.701 26.3712H369.793L369.711 26.4537ZM387.617 45.5148C386.846 45.2947 386.434 44.4971 386.379 43.1218C386.379 39.7662 385.086 36.9056 382.501 34.5402C379.86 32.1197 376.449 30.9095 372.269 30.9095C371.829 30.9095 371.141 30.9645 370.206 31.0745C369.161 31.1846 368.39 31.2396 367.895 31.2396C367.18 31.1846 366.795 30.9095 366.74 30.4144C366.795 29.0392 369.298 28.3515 374.249 28.3515C377.99 28.3515 381.565 29.6718 384.976 32.3123C388.112 34.8978 389.707 37.7308 389.762 40.8114C389.762 43.0668 389.267 44.5521 388.277 45.2672C388.057 45.4322 387.837 45.5148 387.617 45.5148ZM345.534 30.0018C348.834 25.766 352.107 22.7405 355.353 20.9251C357.553 19.7149 360.414 18.5322 363.935 17.377C365.2 16.8819 365.86 16.5243 365.915 16.3043C365.805 15.8642 365.557 15.6166 365.172 15.5616C362.147 15.5616 358.406 17.0469 353.95 20.0175C350.099 22.658 347.101 25.6285 344.956 28.9291C344.791 29.2592 344.708 29.5893 344.708 29.9193C344.708 30.2494 344.791 30.4144 344.956 30.4144C345.176 30.3044 345.369 30.1669 345.534 30.0018ZM407.668 49.2279V51.7859C407.613 59.7074 405.082 65.7861 400.076 70.0219C400.461 76.5681 400.654 80.8039 400.654 82.7292C400.544 84.0495 400.131 84.7371 399.416 84.7921C398.866 84.7371 398.591 83.6369 398.591 81.4915C398.591 80.2813 398.619 78.5209 398.674 76.2105C398.674 73.9551 398.674 72.2773 398.674 71.1771C394.163 74.3127 388.387 75.8805 381.345 75.8805H378.787C366.19 75.8805 355.876 72.0022 347.844 64.2458C341.408 58.0296 337.667 50.6582 336.622 42.1316C336.457 40.7564 336.374 39.3811 336.374 38.0058C336.374 29.5893 339.207 22.5754 344.873 16.9644C345.589 16.2493 346.331 15.5891 347.101 14.984C353.428 10.0331 361.514 7.55763 371.361 7.55763C373.946 7.55763 375.954 8.63033 377.385 10.7757C377.88 11.4909 378.21 12.261 378.375 13.0862C387.672 15.1215 395.098 20.045 400.654 27.8564C405.33 34.4577 407.668 41.5815 407.668 49.2279ZM375.734 12.9211C375.074 11.3258 373.864 10.3907 372.104 10.1156C371.829 10.0606 371.581 10.0331 371.361 10.0331C359.424 10.0331 350.54 13.6638 344.708 20.9251C340.858 25.766 338.932 31.4596 338.932 38.0058C338.932 46.0374 341.655 53.2987 347.101 59.7899C348.147 61.0002 349.247 62.1279 350.402 63.1731C344.626 56.4068 341.655 48.8704 341.49 40.5638C341.49 32.4773 344.296 25.8486 349.907 20.6776C355.793 15.2866 363.797 12.5911 373.919 12.5911C374.634 12.5911 375.239 12.7011 375.734 12.9211ZM378.292 15.7267C378.512 16.3868 378.622 16.8819 378.622 17.2119C378.622 17.2669 378.595 17.3495 378.54 17.4595C378.54 17.5695 378.54 17.652 378.54 17.707C385.196 18.8622 391 21.6678 395.951 26.1236C391.11 20.7876 385.224 17.322 378.292 15.7267ZM477.971 49.4755C477.971 51.4559 477.091 52.8586 475.33 53.6838C474.67 54.0138 474.01 54.1789 473.35 54.1789C472.69 54.1789 472.112 54.0964 471.617 53.9313C468.537 52.8861 466.144 52.1985 464.438 51.8684C467.024 56.6543 469.609 62.1279 472.195 68.289C472.415 68.8391 472.525 69.4167 472.525 70.0219C472.525 72.0022 471.645 73.405 469.884 74.2301C469.224 74.5602 468.564 74.7252 467.904 74.7252H467.574C466.694 76.3205 465.319 77.1457 463.448 77.2007C463.008 77.2007 462.678 77.1732 462.458 77.1182C462.568 79.6487 462.623 81.519 462.623 82.7292C462.513 84.0495 462.101 84.7371 461.385 84.7921C460.835 84.7371 460.56 83.6369 460.56 81.4915V76.293C460.01 75.7979 459.543 75.1653 459.157 74.3952C455.197 64.8234 451.594 56.8194 448.348 50.3832C447.908 50.3832 447.165 50.3832 446.12 50.3832C445.075 50.3282 444.305 50.3007 443.81 50.3007C438.089 50.3007 432.89 50.4932 428.214 50.8783C428.269 52.4736 428.379 54.8665 428.544 58.0571C428.819 62.5129 428.957 65.8686 428.957 68.124C428.847 69.4442 428.462 70.1319 427.802 70.1869C427.251 70.1319 426.976 69.0042 426.976 66.8037C426.976 64.9884 427.004 62.3204 427.059 58.7997C427.059 55.3341 427.059 52.7211 427.059 50.9608C426.894 50.9608 426.646 50.9883 426.316 51.0433C425.986 51.0983 425.739 51.1258 425.574 51.1258C425.519 51.951 425.464 53.3262 425.409 55.2516C425.189 61.2477 424.528 65.1809 423.428 67.0513C422.493 68.5916 421.173 69.3617 419.468 69.3617H419.055C418.065 71.012 416.717 71.8647 415.012 71.9197C413.086 71.9197 411.684 71.012 410.803 69.1967C410.528 68.5366 410.391 67.8765 410.391 67.2163C410.391 63.4756 410.501 60.175 410.721 57.3145C409.676 59.4049 408.768 60.6976 407.998 61.1927C407.283 61.5778 406.485 61.7703 405.605 61.7703C403.68 61.7703 402.304 60.9176 401.479 59.2123C401.149 58.4972 400.984 57.8096 400.984 57.1494V56.5718C401.094 50.6307 405 46.3399 412.701 43.6994C415.067 32.5323 418.34 25.0784 422.521 21.3377C423.841 20.1825 425.161 19.4949 426.481 19.2748C428.297 17.5695 430.029 16.6893 431.68 16.6343C438.171 16.6343 446.01 23.3456 455.197 36.7681C456.242 38.3084 457.287 39.8762 458.332 41.4715C464.934 42.2416 470.49 43.4519 475 45.1022C476.651 45.7623 477.613 46.9725 477.888 48.7329C477.943 49.0079 477.971 49.2555 477.971 49.4755ZM415.672 42.4617C415.672 42.4617 416.91 39.1336 419.385 32.4773C420.155 30.1119 420.54 28.5441 420.54 27.7739C420.485 27.5539 420.43 27.4164 420.375 27.3613C419.77 27.3613 418.642 29.6718 416.992 34.2926C415.837 37.6483 415.259 40.0412 415.259 41.4715C415.259 41.9666 415.397 42.2966 415.672 42.4617ZM470.05 70.0219C470.05 69.7468 469.994 69.4718 469.884 69.1967C467.299 63.1456 464.411 57.2044 461.22 51.3734C459.955 51.1533 458.882 51.0158 458.002 50.9608C461.853 57.727 465.099 64.3283 467.739 70.7645C467.959 71.3146 468.069 71.7822 468.069 72.1673C469.004 72.1122 469.637 71.5896 469.967 70.5995C470.022 70.3794 470.05 70.1869 470.05 70.0219ZM442.902 40.5638C438.171 33.0824 434.21 29.2042 431.02 28.9291C429.314 31.5146 427.967 35.5579 426.976 41.0589C431.047 40.7289 435.943 40.5638 441.664 40.5638H442.902ZM422.851 41.4715C423.016 41.4165 423.263 41.389 423.593 41.389C423.923 41.334 424.171 41.3065 424.336 41.3065C425.106 36.6856 426.041 33.1374 427.141 30.662C425.381 32.8074 423.951 36.4105 422.851 41.4715ZM421.365 51.7034C421.145 53.4637 421.008 55.004 420.953 56.3243C420.898 56.9294 420.843 57.9471 420.788 59.3774C420.623 62.843 420.375 65.3185 420.045 66.8037C420.98 66.4187 421.64 65.346 422.025 63.5856C422.246 62.5404 422.521 59.3223 422.851 53.9313C422.906 52.9411 422.961 52.116 423.016 51.4559C422.796 51.4559 422.521 51.5109 422.191 51.6209C421.805 51.6759 421.53 51.7034 421.365 51.7034ZM452.061 40.8939C452.391 40.8939 452.914 40.9489 453.629 41.0589C454.344 41.1139 454.867 41.1414 455.197 41.1414C449.146 31.9547 443.7 25.6285 438.859 22.1629C436.163 20.1825 433.77 19.1923 431.68 19.1923C431.075 19.2473 430.552 19.3848 430.112 19.6049C432.587 20.32 435.283 21.9153 438.199 24.3908C439.629 24.9959 441.169 26.1236 442.819 27.7739C445.075 30.0293 447.825 33.8801 451.071 39.3261C451.181 39.4911 451.346 39.7387 451.566 40.0687C451.786 40.4538 451.951 40.7289 452.061 40.8939ZM475.661 40.8114C474.615 41.7465 473.46 42.2416 472.195 42.2966C471.04 42.2416 470.077 41.9391 469.307 41.389C470.187 42.7092 471.15 43.8094 472.195 44.6896C472.69 45.0747 473.158 45.2672 473.598 45.2672C475.028 45.1572 475.771 44.222 475.826 42.4617C475.826 42.0766 475.771 41.5265 475.661 40.8114ZM478.384 42.4617C478.384 44.8271 477.476 46.4499 475.661 47.3301C475 47.6602 474.313 47.8252 473.598 47.8252C472.387 47.7702 471.37 47.3851 470.545 46.67C466.694 43.0393 464.466 38.776 463.861 33.8801C462.761 31.1846 462.211 28.4891 462.211 25.7935C462.211 12.5361 466.474 4.83461 475 2.68921C476.596 2.30414 478.246 2.1116 479.951 2.1116C487.378 2.1116 495.574 5.10967 504.541 11.1058C512.187 16.2768 517.963 21.9428 521.869 28.104C524.015 31.6246 525.225 34.8152 525.5 37.6758C526.545 40.3713 527.068 42.5167 527.068 44.112C527.068 49.2279 523.795 52.7211 517.248 54.5915C517.193 54.6465 517.138 54.674 517.083 54.674C519.834 57.3695 523.877 61.7703 529.213 67.8765C529.323 68.0415 529.406 68.1515 529.461 68.2065C530.836 69.8568 531.524 71.6997 531.524 73.7351C531.524 76.5956 530.286 78.9335 527.81 80.7489C526.325 81.7941 524.73 82.3167 523.024 82.3167C520.274 82.2617 518.156 81.2715 516.671 79.3461C514.14 76.1005 512.077 71.6447 510.482 65.9786C509.272 61.6878 508.144 58.8273 507.099 57.397C506.714 56.9019 506.329 56.4618 505.944 56.0767H504.623C503.028 56.0767 500.333 56.0217 496.537 55.9117V56.3243C496.537 66.0611 495.354 72.2223 492.989 74.8078C492.329 75.5229 491.614 75.8805 490.843 75.8805C488.258 75.8805 486.415 74.7527 485.315 72.4973C484.93 71.7272 484.71 70.9295 484.655 70.1044C483.665 59.1023 482.509 50.7407 481.189 45.0197C479.759 39.0235 478.659 34.0176 477.888 30.0018C477.833 29.7818 477.806 29.4792 477.806 29.0942C477.806 27.0038 478.741 25.5735 480.611 24.8034C481.217 24.5283 481.849 24.3908 482.509 24.3908C485.645 24.3908 488.56 26.9763 491.256 32.1472C492.466 34.5127 493.484 37.1807 494.309 40.1512C497.17 40.4813 501.845 41.1964 508.337 42.2966C514.223 42.2416 517.468 40.8114 518.074 38.0058C515.543 33.715 511.032 29.4242 504.541 25.1334C500.25 22.3279 496.097 20.2375 492.081 18.8622C492.301 23.1531 492.411 26.3712 492.411 28.5166C492.356 29.8918 491.944 30.607 491.173 30.662C490.623 30.607 490.348 29.4792 490.348 27.2788C490.348 26.2336 490.376 24.7208 490.431 22.7405C490.431 20.8151 490.431 19.3573 490.431 18.3672C487.68 17.652 485.645 17.2945 484.325 17.2945C478.824 17.2945 475.881 20.155 475.496 25.8761C475.441 26.3712 475.413 26.8387 475.413 27.2788C475.413 28.9841 476.046 32.0647 477.311 36.5206C478.026 39.051 478.384 41.0314 478.384 42.4617ZM490.431 13.3337C487.625 12.3985 485.122 11.9309 482.922 11.9309C477.201 11.9309 474.203 14.929 473.928 20.9251C473.928 20.9801 473.928 21.0352 473.928 21.0902C474.313 20.21 474.808 19.3848 475.413 18.6147C477.448 16.0842 480.419 14.819 484.325 14.819C486.195 14.819 488.23 15.1215 490.431 15.7267V13.3337ZM491.751 13.7463C491.751 14.0213 491.779 14.4064 491.834 14.9015C491.889 15.4516 491.916 15.8367 491.916 16.0567C493.071 16.3868 494.502 16.9094 496.207 17.6245C503.303 20.7051 509.602 24.9959 515.103 30.4969C511.527 25.766 506.411 21.4477 499.755 17.542C497.005 15.9467 494.337 14.6815 491.751 13.7463ZM496.372 52.5286C496.372 52.6386 496.399 52.8036 496.454 53.0237C496.454 53.2437 496.454 53.4087 496.454 53.5188C497.005 53.5188 497.83 53.5463 498.93 53.6013C500.085 53.6013 500.938 53.6013 501.488 53.6013C499.838 53.0512 498.132 52.6936 496.372 52.5286ZM514.855 52.6111C520.687 51.3458 523.877 48.9529 524.427 45.4322C524.482 44.9922 524.51 44.5521 524.51 44.112V43.2868C523.63 44.8821 522.172 46.2574 520.136 47.4126C518.101 49.0079 515.461 49.9431 512.215 50.2181C513.15 50.9883 514.03 51.7859 514.855 52.6111ZM469.719 11.9309C472.085 8.35528 475.798 6.56744 480.859 6.56744C481.409 6.56744 482.647 6.73247 484.572 7.06253C485.287 7.17255 486.113 7.22756 487.048 7.22756C487.543 7.17255 487.818 7.03503 487.873 6.81499C487.873 5.98983 485.7 5.35721 481.354 4.91713C480.529 4.86212 479.841 4.83461 479.291 4.83461C474.505 4.88962 470.875 6.8975 468.399 10.8582C468.014 11.5184 467.822 12.1235 467.822 12.6736C467.877 13.1687 468.042 13.4437 468.317 13.4987H468.399C468.839 12.8936 469.279 12.371 469.719 11.9309ZM530.286 41.2239C531.551 42.4892 532.514 43.1493 533.174 43.2043C534.219 43.1493 534.907 42.6542 535.237 41.719C535.182 41.609 535.127 41.3615 535.072 40.9764C534.962 40.2063 534.824 39.7112 534.659 39.4911C531.634 36.5756 530.093 33.1374 530.038 29.1767C530.093 24.4458 532.156 20.6501 536.227 17.7895C540.023 15.1491 544.809 13.8288 550.585 13.8288C550.75 13.8288 551.025 13.8288 551.41 13.8288C551.795 13.8838 552.07 13.9113 552.235 13.9113C549.539 13.3062 547.036 13.0036 544.726 13.0036C538.29 13.0036 533.366 14.654 529.956 17.9546C529.846 18.0646 529.763 18.1471 529.708 18.2021C527.673 20.5676 526.655 23.098 526.655 25.7935C526.71 29.0392 528.003 31.8447 530.533 34.2101C531.469 35.0903 531.936 36.2455 531.936 37.6758C531.881 38.941 531.331 40.1237 530.286 41.2239ZM521.869 25.2159C522.804 16.9094 527.948 11.4359 537.3 8.79536C539.995 8.08022 542.938 7.61264 546.129 7.39259C547.504 7.28257 548.219 7.14505 548.274 6.98002C548.164 6.70497 547.312 6.56744 545.716 6.56744H545.139C533.806 7.06253 526.243 10.5832 522.447 17.1294C521.292 19.2198 520.549 21.5302 520.219 24.0607V24.8859C520.274 26.3712 520.549 27.1688 521.044 27.2788C521.429 27.2788 521.704 26.6462 521.869 25.381C521.869 25.326 521.869 25.271 521.869 25.2159ZM533.751 34.2101C533.696 33.8251 533.586 33.2474 533.421 32.4773C533.036 30.992 532.844 29.8643 532.844 29.0942C532.844 27.0038 533.806 25.5735 535.732 24.8034C536.337 24.5283 536.97 24.3908 537.63 24.3908C540.82 24.3908 543.708 30.4694 546.294 42.6267C548.329 52.0885 549.457 60.8076 549.677 68.7841C557.158 63.7782 562.934 58.0021 567.005 51.4559C570.196 46.3399 571.791 41.4165 571.791 36.6856C571.736 29.2592 568.848 23.3456 563.127 18.9448C561.147 18.1746 560.046 17.762 559.826 17.707C560.211 25.0234 560.404 29.7268 560.404 31.8172C560.349 33.1924 559.964 33.9076 559.249 33.9626C558.644 33.9076 558.341 32.7799 558.341 30.5794C558.341 29.0942 558.369 26.8663 558.424 23.8957C558.424 20.9801 558.424 18.8072 558.424 17.377C555.728 16.7168 553.115 16.3868 550.585 16.3868C544.093 16.3868 539.17 18.0646 535.814 21.4202C533.669 23.6206 532.596 26.2061 532.596 29.1767C532.596 30.937 532.981 32.6148 533.751 34.2101ZM540.105 73.9001C539.28 64.5483 537.877 54.894 535.897 44.9371C535.677 45.1022 535.347 45.2672 534.907 45.4322C534.467 45.5423 534.082 45.6248 533.751 45.6798H533.174C532.019 45.6248 531.056 45.3222 530.286 44.7721C530.341 45.8173 530.451 47.4126 530.616 49.558C530.891 54.0138 531.028 57.342 531.028 59.5424C530.973 60.9176 530.561 61.6328 529.791 61.6878C529.241 61.6328 528.966 60.5051 528.966 58.3047C528.966 56.6543 528.993 54.1789 529.048 50.8783C529.048 47.6326 529.048 45.2122 529.048 43.6169C528.883 43.4519 528.525 43.0118 527.975 42.2966H527.315C525.995 42.2416 524.922 41.8566 524.097 41.1414C519.641 36.9056 517.386 31.7897 517.331 25.7935C517.331 18.4222 520.659 12.7011 527.315 8.63033C532.431 5.54975 538.455 4.00946 545.386 4.00946C554.023 4.06447 561.504 6.31989 567.83 10.7757C575.697 14.2414 581.115 19.7424 584.086 27.2788C585.626 31.1296 586.396 35.3103 586.396 39.8212C586.396 49.2279 583.041 58.5522 576.329 67.7939C570.278 76.2105 562.962 82.4267 554.38 86.4424C548.989 88.9729 543.681 90.2381 538.455 90.2381C535.319 90.2381 533.174 89.2205 532.019 87.1851C531.964 87.0751 531.909 86.965 531.854 86.855C528.938 86.635 526.985 85.5348 525.995 83.5544C525.665 82.8943 525.5 82.2066 525.5 81.4915C525.5 79.5661 526.325 78.1634 527.975 77.2832C528.415 77.0632 528.856 76.9256 529.296 76.8706C533.641 76.1555 536.337 75.5779 537.382 75.1378C538.097 74.8628 539.005 74.4502 540.105 73.9001ZM575.834 19.3573C578.97 24.4183 580.538 30.1119 580.538 36.438C580.538 37.7583 580.455 39.0785 580.29 40.3988C580.18 44.5796 579.08 48.7054 576.99 52.7761C573.194 61.9078 567.308 69.7193 559.331 76.2105C551.41 82.5917 543.323 86.1124 535.072 86.7725C535.952 87.3776 537.08 87.6802 538.455 87.6802C546.926 87.6802 555.261 84.3795 563.457 77.7783C564.502 76.9532 565.465 76.128 566.345 75.3028C573.937 68.3165 579.162 60.34 582.023 51.3734C583.288 47.3576 583.921 43.5069 583.921 39.8212C583.866 31.5696 581.17 24.7484 575.834 19.3573Z" fill="white"/>
</svg>
