<svg width="586" height="91" viewBox="0 0 586 91" fill="none" xmlns="http://www.w3.org/2000/svg">
<path d="M3.50491 25.5536C3.50491 21.1528 5.0727 17.8246 8.20829 15.5692C9.96862 14.304 11.9215 13.6714 14.0669 13.6714C20.118 13.6714 27.5994 16.4219 36.5111 21.9229C39.5367 23.7933 41.5996 25.2785 42.6998 26.3787C44.4601 22.583 45.8629 20.6852 46.9081 20.6852C47.7332 20.7952 48.1733 21.8404 48.2283 23.8208C48.2283 26.9013 47.6232 29.7069 46.413 32.2373C45.4228 34.1077 44.2951 35.0704 43.0298 35.1254C43.0298 35.1254 41.1595 33.5576 37.4188 30.422C34.7783 28.3316 32.3028 26.5713 29.9924 25.141C28.177 24.4809 26.6918 24.1508 25.5365 24.1508C22.566 24.2608 21.0532 25.7461 20.9982 28.6067C21.0532 33.5026 23.6662 37.5733 28.8372 40.819C30.5975 41.5891 33.3755 42.6893 37.1712 44.1196C43.9375 46.595 48.6409 48.6579 51.2814 50.3082C58.0476 53.3338 62.2559 56.7444 63.9062 60.5402C64.6214 62.1355 64.9789 63.8408 64.9789 65.6561C64.9789 70.442 61.6783 73.8802 55.0771 75.9706C51.3914 77.1258 47.1281 77.7034 42.2872 77.7034C32.9354 77.7034 24.7114 75.9155 17.6151 72.3399C16.5148 71.7898 15.5247 71.2397 14.6445 70.6896C13.1592 70.0845 11.6189 69.3143 10.0236 68.3791C10.2437 72.6699 10.3537 75.8605 10.3537 77.9509C10.2987 79.3262 9.88611 80.0413 9.11596 80.0963C8.56586 80.0413 8.29081 78.9136 8.29081 76.7132C8.29081 75.668 8.31831 74.1002 8.37332 72.0098C8.37332 69.9194 8.37332 68.3791 8.37332 67.3889C3.03732 63.7033 0.341813 59.3849 0.286803 54.434C0.286803 52.4536 1.16697 51.0509 2.9273 50.2257C3.53241 49.8957 4.19254 49.7306 4.90767 49.7306C4.90767 49.7306 7.87823 51.546 13.8193 55.1767C26.5817 62.548 35.8235 66.2612 41.5445 66.3162C45.5053 66.2062 47.5132 64.2534 47.5682 60.4576C47.5132 58.0922 46.1379 56.0293 43.4424 54.269C41.8471 53.6089 39.2616 52.6462 35.6859 51.3809C28.1495 48.6304 22.786 46.32 19.5954 44.4496C11.5089 40.819 6.50297 36.5006 4.57761 31.4947C3.86247 29.6244 3.50491 27.644 3.50491 25.5536ZM15.4697 15.3217H15.3046C9.58355 15.4867 6.668 17.8797 6.55798 22.5005C6.55798 24.921 6.80553 26.4613 7.30062 27.1214C7.35563 27.1764 7.41064 27.2039 7.46565 27.2039C7.85072 27.0939 8.04326 26.5713 8.04326 25.6361C8.04326 25.4161 8.01575 25.0585 7.96074 24.5634C7.96074 24.2884 7.96074 24.0958 7.96074 23.9858C7.96074 19.805 9.336 17.4396 12.0865 16.8895C12.6366 16.7794 13.3793 16.7244 14.3144 16.7244H14.562C14.837 16.7244 15.1121 16.7244 15.3871 16.7244C15.8272 16.7794 16.2948 16.8069 16.7899 16.8069C17.12 16.7519 17.3125 16.6694 17.3675 16.5594C16.8724 15.8443 16.2398 15.4317 15.4697 15.3217ZM18.4402 28.6067C18.4402 25.6911 19.5404 23.6282 21.7408 22.418C22.2909 22.143 22.8135 21.9504 23.3086 21.8404C21.9884 21.4003 20.8607 21.1803 19.9255 21.1803C16.8999 21.2903 15.3596 22.8306 15.3046 25.8011C15.3596 29.6519 17.0374 32.98 20.3381 35.7855C19.0728 33.31 18.4402 30.9171 18.4402 28.6067ZM57.9651 56.992C58.9003 58.9174 59.3679 60.8152 59.3679 62.6856C59.3679 67.4165 56.1773 70.8546 49.7961 73C46.0004 74.2652 41.5996 74.8979 36.5936 74.8979H35.6859C36.016 74.9529 36.3736 74.9804 36.7587 74.9804C37.1437 75.0354 37.5288 75.0629 37.9139 75.0629C38.354 75.0629 38.7665 75.0629 39.1516 75.0629C39.5917 75.1179 39.9768 75.1454 40.3068 75.1454C40.6919 75.2004 41.022 75.2279 41.297 75.2279C41.6271 75.2279 41.8746 75.2279 42.0396 75.2279H42.2872C50.7038 75.1729 56.6449 73.6051 60.1105 70.5245C61.7058 69.0393 62.5035 67.4165 62.5035 65.6561C62.4485 62.3555 60.9357 59.4675 57.9651 56.992ZM58.5427 36.1156C58.5427 36.1156 58.0476 32.1823 57.0575 24.3159C56.5624 21.5653 56.1498 19.805 55.8197 19.0349C55.3246 18.4298 55.0771 18.9524 55.0771 20.6027C55.0771 24.4534 55.6547 28.5517 56.8099 32.8975C57.085 33.8877 57.3325 34.6578 57.5526 35.2079C57.6076 35.3729 57.7176 35.538 57.8826 35.703C58.0476 35.868 58.1852 36.0056 58.2952 36.1156C58.4602 36.1706 58.5427 36.1706 58.5427 36.1156ZM81.9771 12.2686C82.1422 13.0938 82.6373 13.5888 83.4624 13.7539C84.3426 13.5888 84.8652 13.0938 85.0302 12.2686C85.0302 11.4985 84.6451 11.0034 83.875 10.7833C83.71 10.7283 83.5724 10.7008 83.4624 10.7008C82.6923 10.7008 82.2247 11.0859 82.0597 11.856C82.0046 12.0211 81.9771 12.1586 81.9771 12.2686ZM109.537 75.6405C109.537 78.501 108.272 80.8115 105.742 82.5718C104.256 83.617 102.661 84.1396 100.956 84.1396C98.1502 84.0846 96.0048 83.0944 94.5195 81.169C91.989 77.9234 89.9261 73.4676 88.3308 67.8015C87.1206 63.5107 85.9929 60.6502 84.9477 59.2199C82.5823 56.1393 78.319 54.489 72.1578 54.269C72.6529 60.5402 72.9004 65.9037 72.9004 70.3595C72.8454 76.8507 71.2776 80.1238 68.1971 80.1788C66.1067 80.1788 64.6764 79.1887 63.9062 77.2083C63.7412 76.7682 63.6312 76.3281 63.5762 75.888C62.586 66.9764 60.6331 56.7995 57.7176 45.3573C55.1321 35.2904 53.2342 27.0114 52.024 20.5201C51.914 19.75 51.859 19.1449 51.859 18.7048C51.859 14.9091 53.3993 12.0211 56.4799 10.0407C58.1852 8.94047 60.083 8.39037 62.1734 8.39037C64.8689 8.50039 67.4269 16.6969 69.8474 32.98C74.0832 30.3395 76.8337 27.7815 78.0989 25.306C78.814 23.8208 79.3091 22.0604 79.5842 20.0251C79.5842 19.97 79.6117 19.8875 79.6667 19.7775C79.8317 18.4573 79.9143 16.2568 79.9143 13.1763C79.9143 11.3059 80.7944 9.93066 82.5548 9.05049C83.2699 8.72043 83.985 8.5554 84.7002 8.5554C89.321 8.66542 91.659 10.8933 91.714 15.2392C91.714 16.2293 91.3839 17.4671 90.7238 18.9524V19.1999C91.1639 20.1901 91.3839 21.2628 91.3839 22.418C91.3839 22.9131 91.2189 23.6832 90.8888 24.7284C91.1639 30.0094 91.3014 33.1175 91.3014 34.0527C91.2464 35.4279 90.8338 36.1431 90.0637 36.1981C89.5136 36.1431 89.2385 35.0154 89.2385 32.815C89.2385 30.7796 89.266 29.2668 89.321 28.2766C87.3406 31.6322 84.15 35.6755 79.7492 40.4064C87.2856 41.3966 92.7867 43.6245 96.2523 47.0901C97.5176 48.3554 99.4704 51.0509 102.111 55.1767C104.091 58.2572 105.962 60.8152 107.722 62.8506C109.152 64.5559 109.867 66.4263 109.867 68.4616C109.812 69.8369 109.455 71.1296 108.795 72.3399C109.29 73.5501 109.537 74.6503 109.537 75.6405ZM74.4682 39.9113C74.6883 39.9113 75.0183 39.9388 75.4584 39.9938C75.9535 40.0488 76.3111 40.0763 76.5311 40.0763C81.5921 34.9053 85.1952 30.3945 87.3406 26.5438C88.3308 24.5634 88.8259 23.2157 88.8259 22.5005C86.7905 25.6911 83.985 29.1568 80.4093 32.8975C79.3642 35.3179 77.3838 37.6559 74.4682 39.9113ZM71.7452 49.2355C71.9103 50.8858 71.9928 51.711 71.9928 51.711C79.5842 51.931 84.7827 54.214 87.5882 58.5598C88.0283 59.3849 88.4409 60.2101 88.8259 61.0353C87.5607 56.6894 86.5155 53.8839 85.6903 52.6187C85.3053 52.0686 84.9202 51.5735 84.5351 51.1334C80.8494 50.2532 76.8887 49.7031 72.6529 49.4831C72.2678 49.4281 71.9653 49.3456 71.7452 49.2355ZM106.897 74.8153C105.302 76.1906 103.431 76.8782 101.286 76.8782C98.4802 76.8232 96.3623 75.8605 94.9321 73.9902C93.1167 71.6247 91.659 69.0393 90.5588 66.2337L90.6413 66.3988V66.5638C92.1265 72.0098 93.9969 76.2456 96.2523 79.2712C96.3623 79.4362 96.4724 79.5737 96.5824 79.6838C97.5176 80.894 98.9753 81.5266 100.956 81.5816C103.101 81.5816 104.806 80.5914 106.072 78.6111C106.677 77.6759 106.979 76.6857 106.979 75.6405C106.979 75.2554 106.952 74.9804 106.897 74.8153ZM176.127 49.8957C176.127 51.876 175.247 53.2788 173.487 54.104C172.827 54.434 172.167 54.599 171.506 54.599C170.846 54.599 170.269 54.5165 169.774 54.3515C166.693 53.3063 164.3 52.6187 162.595 52.2886C165.18 57.0745 167.766 62.548 170.351 68.7092C170.571 69.2593 170.681 69.8369 170.681 70.442C170.681 72.4224 169.801 73.8252 168.041 74.6503C167.381 74.9804 166.721 75.1454 166.06 75.1454H165.73C164.85 76.7407 163.475 77.5659 161.605 77.6209C161.165 77.6209 160.834 77.5934 160.614 77.5384C160.724 80.0688 160.779 81.9392 160.779 83.1494C160.669 84.4697 160.257 85.1573 159.542 85.2123C158.992 85.1573 158.717 84.0571 158.717 81.9117V76.7132C158.166 76.2181 157.699 75.5855 157.314 74.8153C153.353 65.2435 149.75 57.2395 146.504 50.8033C146.064 50.8033 145.322 50.8033 144.276 50.8033C143.231 50.7483 142.461 50.7208 141.966 50.7208C136.245 50.7208 131.046 50.9134 126.37 51.2984C126.425 52.8937 126.536 55.2867 126.701 58.4773C126.976 62.9331 127.113 66.2887 127.113 68.5442C127.003 69.8644 126.618 70.552 125.958 70.6071C125.408 70.552 125.133 69.4243 125.133 67.2239C125.133 65.4086 125.16 62.7406 125.215 59.2199C125.215 55.7543 125.215 53.1413 125.215 51.3809C125.05 51.3809 124.803 51.4084 124.473 51.4635C124.143 51.5185 123.895 51.546 123.73 51.546C123.675 52.3711 123.62 53.7464 123.565 55.6717C123.345 61.6679 122.685 65.6011 121.585 67.4715C120.649 69.0118 119.329 69.7819 117.624 69.7819H117.211C116.221 71.4322 114.873 72.2849 113.168 72.3399C111.243 72.3399 109.84 71.4322 108.96 69.6169C108.685 68.9567 108.547 68.2966 108.547 67.6365C108.547 63.8958 108.657 60.5952 108.877 57.7346C107.832 59.825 106.924 61.1178 106.154 61.6129C105.439 61.9979 104.641 62.1905 103.761 62.1905C101.836 62.1905 100.461 61.3378 99.6355 59.6325C99.3054 58.9174 99.1404 58.2297 99.1404 57.5696V56.992C99.2504 51.0509 103.156 46.7601 110.858 44.1196C113.223 32.9525 116.496 25.4986 120.677 21.7579C121.997 20.6027 123.317 19.915 124.638 19.695C126.453 17.9897 128.186 17.1095 129.836 17.0545C136.327 17.0545 144.166 23.7658 153.353 37.1883C154.398 38.7286 155.443 40.2964 156.489 41.8917C163.09 42.6618 168.646 43.872 173.157 45.5223C174.807 46.1825 175.77 47.3927 176.045 49.153C176.1 49.4281 176.127 49.6756 176.127 49.8957ZM113.828 42.8818C113.828 42.8818 115.066 39.5537 117.541 32.8975C118.311 30.532 118.697 28.9642 118.697 28.1941C118.642 27.974 118.587 27.8365 118.532 27.7815C117.926 27.7815 116.799 30.0919 115.148 34.7128C113.993 38.0684 113.416 40.4614 113.416 41.8917C113.416 42.3868 113.553 42.7168 113.828 42.8818ZM168.206 70.442C168.206 70.167 168.151 69.8919 168.041 69.6169C165.455 63.5657 162.567 57.6246 159.377 51.7935C158.111 51.5735 157.039 51.436 156.159 51.3809C160.009 58.1472 163.255 64.7485 165.895 71.1847C166.115 71.7348 166.225 72.2024 166.225 72.5874C167.161 72.5324 167.793 72.0098 168.123 71.0196C168.178 70.7996 168.206 70.6071 168.206 70.442ZM141.058 40.984C136.327 33.5026 132.367 29.6244 129.176 29.3493C127.471 31.9348 126.123 35.978 125.133 41.4791C129.204 41.149 134.099 40.984 139.821 40.984H141.058ZM121.007 41.8917C121.172 41.8366 121.42 41.8091 121.75 41.8091C122.08 41.7541 122.327 41.7266 122.492 41.7266C123.262 37.1058 124.198 33.5576 125.298 31.0821C123.537 33.2275 122.107 36.8307 121.007 41.8917ZM119.522 52.1236C119.302 53.8839 119.164 55.4242 119.109 56.7444C119.054 57.3496 118.999 58.3673 118.944 59.7975C118.779 63.2632 118.532 65.7386 118.201 67.2239C119.137 66.8388 119.797 65.7661 120.182 64.0058C120.402 62.9606 120.677 59.7425 121.007 54.3515C121.062 53.3613 121.117 52.5362 121.172 51.876C120.952 51.876 120.677 51.931 120.347 52.0411C119.962 52.0961 119.687 52.1236 119.522 52.1236ZM150.217 41.3141C150.548 41.3141 151.07 41.3691 151.785 41.4791C152.5 41.5341 153.023 41.5616 153.353 41.5616C147.302 32.3749 141.856 26.0487 137.015 22.583C134.319 20.6027 131.927 19.6125 129.836 19.6125C129.231 19.6675 128.708 19.805 128.268 20.0251C130.744 20.7402 133.439 22.3355 136.355 24.811C137.785 25.4161 139.325 26.5438 140.976 28.1941C143.231 30.4495 145.982 34.3002 149.227 39.7463C149.337 39.9113 149.502 40.1588 149.722 40.4889C149.942 40.874 150.107 41.149 150.217 41.3141ZM205.09 17.2195V18.7048C214.662 17.2745 225.967 16.4494 239.004 16.2293C240.489 16.2293 241.562 15.5142 242.222 14.0839C242.387 13.5888 242.47 13.1213 242.47 12.6812C242.47 11.1409 241.755 10.0682 240.324 9.46307C239.829 9.24303 239.362 9.13301 238.922 9.13301H238.014V9.54559C238.014 11.911 236.969 13.6989 234.878 14.9091C233.943 15.3492 233.008 15.5967 232.073 15.6517C222.446 15.8168 213.452 16.3394 205.09 17.2195ZM196.261 18.3747C196.921 18.8698 197.416 19.3924 197.746 19.9425C199.287 19.6125 201.35 19.2549 203.935 18.8698V17.3846C199.259 17.9897 196.701 18.3197 196.261 18.3747ZM188.422 12.1036C188.202 11.7185 187.707 11.526 186.937 11.526C186.497 11.526 186.002 11.581 185.452 11.691C183.746 12.1861 181.326 13.0387 178.19 14.249C178.025 14.304 177.668 14.4415 177.118 14.6615C174.697 15.6517 173.459 16.4494 173.404 17.0545C173.404 17.1095 173.432 17.192 173.487 17.302H173.569C174.56 17.302 178.025 16.2293 183.966 14.0839C185.011 13.7539 185.864 13.4513 186.524 13.1763C187.79 12.6262 188.422 12.2686 188.422 12.1036ZM189.825 39.1686V40.984C189.88 43.4044 190.237 44.6422 190.898 44.6972C191.173 44.6972 191.503 41.3691 191.888 34.7128C191.943 33.2275 191.97 32.0173 191.97 31.0821C191.97 29.6519 191.888 28.9092 191.723 28.8542C191.063 28.8542 190.595 29.5693 190.32 30.9996C190.265 31.1646 190.237 31.3022 190.237 31.4122C189.962 34.4378 189.825 37.0232 189.825 39.1686ZM158.717 27.2039C157.506 26.2687 156.874 25.031 156.819 23.4907C156.819 21.6204 157.644 20.2451 159.294 19.3649C159.459 19.2549 159.597 19.1724 159.707 19.1174C172.304 14.1665 181.931 10.7833 188.587 8.96798C201.405 5.55734 215.817 3.71449 231.825 3.43944H231.908C234.218 3.49445 235.979 4.53965 237.189 6.57503H238.922C241.232 6.57503 242.992 7.62022 244.203 9.71062C244.753 10.6458 245.028 11.636 245.028 12.6812C245.028 14.9916 243.983 16.7519 241.892 17.9622C240.957 18.4573 239.994 18.7323 239.004 18.7873C225.527 19.0624 214.277 19.86 205.255 21.1803C205.475 25.6911 205.585 29.1018 205.585 31.4122C205.53 32.7874 205.145 33.5026 204.43 33.5576C203.825 33.5026 203.522 32.3749 203.522 30.1745C203.522 29.9544 203.605 27.0389 203.77 21.4278C202.945 21.5378 201.79 21.7579 200.304 22.0879C199.424 22.253 198.792 22.363 198.407 22.418C198.407 25.3886 198.489 29.6794 198.654 35.2904C198.764 40.6264 198.819 44.6147 198.819 47.2552C198.819 55.0666 198.407 62.0254 197.581 68.1316C197.306 70.112 196.234 71.4872 194.363 72.2574C193.703 72.4774 193.071 72.5874 192.465 72.5874C190.43 72.5874 188.917 71.6522 187.927 69.7819C187.542 69.0118 187.349 68.2141 187.349 67.3889C187.349 63.3182 187.735 53.8839 188.505 39.0861C188.78 33.5301 188.945 28.6892 189 24.5634C182.343 26.4338 176.127 28.5517 170.351 30.9171C170.681 32.2373 170.846 33.4476 170.846 34.5478C170.681 36.9682 169.884 38.261 168.453 38.426C166.198 38.426 163.557 35.813 160.532 30.587C159.927 29.4868 159.322 28.3591 158.717 27.2039ZM169.609 28.4416C176.155 25.8561 182.646 23.7107 189.082 22.0054C189.192 21.1803 189.522 20.3826 190.072 19.6125C182.921 21.0978 175.742 23.1606 168.536 25.8011C168.701 26.1312 169.058 27.0114 169.609 28.4416ZM231.083 9.13301C231.028 8.74794 230.698 8.52789 230.092 8.47288C226.902 8.47288 223.711 9.87565 220.521 12.6812C218.155 14.8266 216.395 17.3846 215.24 20.3551V20.4376C215.24 21.0978 215.405 21.4278 215.735 21.4278C216.23 21.4278 216.725 21.0427 217.22 20.2726C217.275 20.1076 217.33 19.9975 217.385 19.9425C218.925 16.2018 222.226 13.2313 227.287 11.0309C228.332 10.5908 229.267 10.2607 230.092 10.0407C230.698 9.76563 231.028 9.46307 231.083 9.13301ZM254.93 44.1196C254.82 42.9094 253.967 42.1942 252.372 41.9742C251.822 43.7895 250.611 44.8897 248.741 45.2748C248.411 45.3298 248.108 45.3573 247.833 45.3573C247.723 45.3573 247.613 45.3848 247.503 45.4398C247.338 45.4398 247.228 45.4398 247.173 45.4398V46.7601C249.099 46.43 250.969 46.265 252.784 46.265C253.719 46.265 254.38 45.7974 254.765 44.8622C254.875 44.5872 254.93 44.3396 254.93 44.1196ZM257.488 44.1196C257.488 45.9899 256.635 47.3927 254.93 48.3279C254.214 48.6579 253.499 48.823 252.784 48.823C250.694 48.823 248.878 48.9605 247.338 49.2355C247.503 51.656 247.586 54.0764 247.586 56.4969C247.531 57.8722 247.146 58.5873 246.431 58.6423C245.88 58.5873 245.605 57.4596 245.605 55.2592V49.5656C239.114 51.0509 234.411 53.6639 231.495 57.4046C230.01 59.3849 229.267 61.4753 229.267 63.6757C229.267 64.2259 229.377 64.831 229.597 65.4911C231.413 65.8762 233.916 66.0687 237.106 66.0687C241.342 66.0687 247.806 64.941 256.497 62.6856C259.303 61.9154 261.366 61.3928 262.686 61.1178C263.126 61.0077 263.676 60.8702 264.336 60.7052C265.822 60.3201 267.087 60.1276 268.132 60.1276C270.663 60.1276 272.505 61.2003 273.661 63.3457C273.716 63.4557 273.771 63.5382 273.826 63.5932C276.136 63.8133 277.786 64.996 278.777 67.1414C279.162 67.9666 279.354 68.7917 279.354 69.6169C279.354 71.8723 278.337 73.6051 276.301 74.8153C275.366 75.3104 274.431 75.5855 273.496 75.6405C261.448 77.7859 250.969 78.8586 242.057 78.8586C233.256 78.8036 227.012 76.8507 223.326 73C217.825 70.3595 215.047 66.1237 214.992 60.2926C215.047 54.6816 217.935 49.4556 223.656 44.6147C222.666 43.7895 222.171 43.3769 222.171 43.3769C217.44 41.0665 214.304 37.6009 212.764 32.98C212.159 31.2747 211.857 29.5143 211.857 27.699C211.857 21.2078 214.525 15.7893 219.861 11.4434C224.866 7.37268 230.725 5.3373 237.436 5.3373C240.847 5.39231 243.515 6.65754 245.44 9.13301C249.786 10.3432 252.317 13.8914 253.032 19.7775C253.142 20.7677 253.197 21.7854 253.197 22.8306C253.197 24.7009 252.344 26.1037 250.639 27.0389C249.924 27.3689 249.209 27.534 248.493 27.534C246.513 27.534 245.083 26.6263 244.203 24.811C244.093 24.5359 244.01 24.2884 243.955 24.0683H243.542C241.617 24.0683 240.242 23.2157 239.417 21.5103C239.087 20.7952 238.922 20.1076 238.922 19.4474C238.922 19.3374 238.922 19.1449 238.922 18.8698C238.867 18.6498 238.839 18.4848 238.839 18.3747C234.053 19.1999 230.505 21.3453 228.195 24.811C226.874 26.7913 226.214 28.8817 226.214 31.0821C226.269 32.7324 226.682 34.1902 227.452 35.4555C229.817 36.1706 232.375 36.5282 235.126 36.5282C236.116 36.5282 239.114 36.3631 244.12 36.0331C244.945 35.978 245.743 35.9505 246.513 35.9505C249.869 36.0056 251.849 37.1608 252.454 39.4162C255.59 40.0763 257.268 41.6441 257.488 44.1196ZM245.688 45.5223C239.417 46.0174 234.136 47.8328 229.845 50.9684C226.269 53.7189 224.454 56.827 224.399 60.2926C224.454 62.163 225.224 63.5657 226.709 64.5009V63.6757C226.764 60.0451 228.332 56.772 231.413 53.8564C234.933 50.6108 239.692 48.3554 245.688 47.0901V45.5223ZM274.486 66.3162C274.431 68.5717 273.358 70.277 271.268 71.4322C270.388 71.9273 269.48 72.2024 268.545 72.2574C256.497 74.4028 246.018 75.4755 237.106 75.4755C236.061 75.4755 234.631 75.4205 232.815 75.3104C235.676 75.9706 238.757 76.3006 242.057 76.3006C251.134 76.3006 261.448 75.2554 273.001 73.165C273.056 73.165 273.138 73.1375 273.248 73.0825C273.358 73.0825 273.413 73.0825 273.413 73.0825C274.898 73.0275 275.944 72.3124 276.549 70.9371C276.769 70.442 276.879 70.0019 276.879 69.6169C276.879 68.1316 276.191 67.0864 274.816 66.4813C274.651 66.4263 274.541 66.3713 274.486 66.3162ZM247.338 12.9287C247.888 14.8541 248.163 17.027 248.163 19.4474C248.108 20.9877 247.503 22.2255 246.348 23.1606C246.513 23.9858 247.036 24.5634 247.916 24.8935C248.136 24.9485 248.328 24.976 248.493 24.976C249.429 24.976 250.089 24.5084 250.474 23.5732C250.584 23.2982 250.639 23.0506 250.639 22.8306C250.584 18.0997 249.484 14.7991 247.338 12.9287ZM223.656 31.0821C223.656 25.7461 226.187 21.5653 231.248 18.5398C233.503 17.2195 235.951 16.3394 238.592 15.8993C238.261 15.1291 237.876 14.7166 237.436 14.6615C232.32 14.6615 228.14 16.2844 224.894 19.53C222.474 21.8954 221.263 24.6184 221.263 27.699C221.318 30.1745 222.226 32.1823 223.986 33.7226C223.766 32.6224 223.656 31.7423 223.656 31.0821ZM283.397 24.5634C287.468 19.3924 295.665 14.7716 307.987 10.7008C308.317 10.5908 308.62 10.4808 308.895 10.3707C310.16 9.87565 310.82 9.51808 310.875 9.29804C310.82 8.85796 310.518 8.61041 309.967 8.5554C307.217 8.5554 302.981 9.93066 297.26 12.6812C290.054 16.1468 285.24 19.75 282.82 23.4907C282.655 23.8208 282.572 24.1508 282.572 24.4809C282.572 24.811 282.655 24.976 282.82 24.976C283.04 24.866 283.232 24.7284 283.397 24.5634ZM295.032 72.0098C294.922 72.0098 294.812 71.9823 294.702 71.9273C294.482 71.8723 294.345 71.8448 294.289 71.8448H293.794C292.804 71.8448 292.117 72.3399 291.732 73.3301C291.677 73.5501 291.649 73.7426 291.649 73.9077C291.649 74.7878 292.062 75.448 292.887 75.888C293.052 75.9981 293.189 76.0531 293.299 76.0531H293.382V75.6405C293.437 74.1552 293.987 72.945 295.032 72.0098ZM294.537 22.5005C293.217 23.2157 292.034 23.9308 290.989 24.6459C291.264 31.4122 291.401 35.4555 291.401 36.7757C291.291 38.0959 290.906 38.7836 290.246 38.8386C289.696 38.7836 289.421 37.6559 289.421 35.4555C289.421 35.3454 289.504 32.0723 289.669 25.6361C286.753 27.8915 284.993 29.8994 284.388 31.6597C283.838 33.255 282.682 34.2452 280.922 34.6303C280.592 34.6853 280.289 34.7128 280.014 34.7128C278.529 34.6578 277.319 34.1077 276.384 33.0625H275.806C273.936 33.0625 272.533 32.2098 271.598 30.5045C271.268 29.7894 271.103 29.0743 271.103 28.3591C271.103 27.809 271.185 27.2864 271.35 26.7913C273.221 21.5653 278.337 16.5044 286.698 11.6085C295.94 6.16245 305.952 2.66929 316.734 1.12901C319.759 0.688923 322.675 0.468882 325.48 0.468882C329.386 0.468882 332.522 1.21152 334.887 2.6968C340.718 4.07206 343.661 7.78526 343.716 13.8364C343.661 26.8738 335.465 38.9486 319.127 50.0607C325.453 50.5558 330.129 51.656 333.154 53.3613C338.215 54.7916 340.773 57.047 340.828 60.1276C340.828 67.0039 336.812 72.4774 328.781 76.5482C322.345 79.7388 315.193 81.3341 307.327 81.3341C303.696 81.3341 300.231 80.949 296.93 80.1788C296.105 79.9588 295.362 79.5462 294.702 78.9411C291.291 78.556 289.449 77.0983 289.174 74.5678C289.119 74.3478 289.091 74.1277 289.091 73.9077C289.091 71.9823 289.999 70.5795 291.814 69.6994C292.474 69.4243 293.134 69.2868 293.794 69.2868H294.124V69.2043C294.124 66.6738 294.317 63.4557 294.702 59.55C292.942 59.44 291.621 58.9449 290.741 58.0647C289.806 57.0195 289.311 55.8918 289.256 54.6816C289.311 52.7012 290.274 51.2709 292.144 50.3908C293.629 49.6756 294.812 49.098 295.692 48.6579C295.802 47.1727 295.857 45.0823 295.857 42.3868C295.857 34.8503 295.417 28.2216 294.537 22.5005ZM303.366 18.5398C304.741 26.0212 305.484 34.1352 305.594 42.8818C315.661 36.2806 322.235 30.0094 325.315 24.0683C325.865 22.9681 326.278 21.9229 326.553 20.9327C326.058 19.3924 324.188 18.2922 320.942 17.6321C319.842 17.4121 318.797 17.302 317.806 17.302C317.256 17.247 316.954 17.1095 316.899 16.8895C316.954 16.2293 318.191 15.8993 320.612 15.8993C323.362 15.9543 325.453 16.5869 326.883 17.7971C326.773 16.3669 326.14 15.1841 324.985 14.249C323.83 14.0289 322.372 13.9189 320.612 13.9189C317.311 13.9189 311.865 15.3492 304.274 18.2097C303.944 18.3197 303.641 18.4298 303.366 18.5398ZM305.594 47.2552C315.991 41.039 323.362 34.9053 327.708 28.8542C329.964 25.6086 331.091 22.6655 331.091 20.0251C331.036 18.2647 330.376 16.8895 329.111 15.8993C329.331 16.6144 329.441 17.4121 329.441 18.2922C329.386 20.9327 328.423 23.8758 326.553 27.1214C322.812 33.0625 315.826 39.3062 305.594 45.8524V47.2552ZM295.362 52.6187C295.362 52.5087 295.362 52.3436 295.362 52.1236C295.417 51.9035 295.445 51.7385 295.445 51.6285C294.455 52.1236 293.712 52.4811 293.217 52.7012C292.337 53.1413 291.869 53.8014 291.814 54.6816C291.814 55.2317 292.007 55.6993 292.392 56.0843L292.474 56.1668C292.804 56.4969 293.107 56.6894 293.382 56.7444C293.437 56.7444 293.519 56.772 293.629 56.827C293.629 56.772 293.602 56.6894 293.547 56.5794C293.547 56.4694 293.547 56.3869 293.547 56.3319C293.602 54.7916 294.207 53.5538 295.362 52.6187ZM304.769 61.2003C304.219 65.271 303.724 68.2966 303.284 70.277C309.335 70.222 315.358 69.0668 321.355 66.8113C325.48 65.271 327.571 63.8133 327.626 62.438C327.571 62.108 327.488 61.8604 327.378 61.6954C324.133 61.1453 319.704 60.8702 314.093 60.8702C311.783 60.8702 308.675 60.9802 304.769 61.2003ZM275.393 30.5045V30.0919C275.393 29.4868 275.476 28.9367 275.641 28.4416C277.566 23.1606 282.682 18.0722 290.989 13.1763C297.865 9.16051 305.402 6.16245 313.598 4.18208C303.201 6.21746 293.849 9.90315 285.543 15.2392C282.682 17.1095 280.289 19.0074 278.364 20.9327C275.999 23.2982 274.458 25.5261 273.743 27.6165C273.688 27.8365 273.661 28.0841 273.661 28.3591C273.661 29.2943 274.128 29.9819 275.063 30.422C275.228 30.477 275.338 30.5045 275.393 30.5045ZM316.156 71.0196C322.922 69.7544 327.708 68.0766 330.514 65.9862C331.394 65.271 331.862 64.6384 331.917 64.0883C331.807 63.4832 331.229 62.9331 330.184 62.438C330.184 63.8133 329.386 65.1335 327.791 66.3988C327.626 66.5088 327.543 66.5638 327.543 66.5638C325.178 68.1591 321.382 69.6444 316.156 71.0196ZM369.049 26.8738C367.178 26.8738 365.775 25.9112 364.84 23.9858C364.84 23.8758 364.813 23.7933 364.758 23.7383C356.891 26.5988 352.023 31.1922 350.152 37.5183C349.712 39.1686 349.492 40.8465 349.492 42.5518C349.492 48.4379 351.775 53.7739 356.341 58.5598C361.622 64.0608 368.251 67.0039 376.227 67.3889C376.722 67.3889 377.19 67.3889 377.63 67.3889C384.616 67.3889 389.595 65.0785 392.565 60.4576C394.271 57.7621 395.123 54.5165 395.123 50.7208C395.123 44.7797 393.061 39.4987 388.935 34.8778C384.039 29.4868 377.74 26.7913 370.039 26.7913H369.131L369.049 26.8738ZM386.954 45.9349C386.184 45.7149 385.772 44.9172 385.717 43.542C385.717 40.1863 384.424 37.3258 381.838 34.9604C379.198 32.5399 375.787 31.3297 371.607 31.3297C371.166 31.3297 370.479 31.3847 369.544 31.4947C368.498 31.6047 367.728 31.6597 367.233 31.6597C366.518 31.6047 366.133 31.3297 366.078 30.8346C366.133 29.4593 368.636 28.7717 373.587 28.7717C377.328 28.7717 380.903 30.0919 384.314 32.7324C387.449 35.3179 389.045 38.151 389.1 41.2315C389.1 43.487 388.605 44.9722 387.615 45.6874C387.394 45.8524 387.174 45.9349 386.954 45.9349ZM344.872 30.422C348.172 26.1862 351.445 23.1606 354.691 21.3453C356.891 20.1351 359.752 18.9524 363.272 17.7971C364.538 17.302 365.198 16.9445 365.253 16.7244C365.143 16.2844 364.895 16.0368 364.51 15.9818C361.485 15.9818 357.744 17.4671 353.288 20.4376C349.437 23.0781 346.439 26.0487 344.294 29.3493C344.129 29.6794 344.046 30.0094 344.046 30.3395C344.046 30.6696 344.129 30.8346 344.294 30.8346C344.514 30.7246 344.706 30.587 344.872 30.422ZM407.006 49.6481V52.2061C406.951 60.1276 404.42 66.2062 399.414 70.442C399.799 76.9882 399.992 81.224 399.992 83.1494C399.882 84.4697 399.469 85.1573 398.754 85.2123C398.204 85.1573 397.929 84.0571 397.929 81.9117C397.929 80.7014 397.956 78.9411 398.011 76.6307C398.011 74.3753 398.011 72.6974 398.011 71.5972C393.501 74.7328 387.725 76.3006 380.683 76.3006H378.125C365.528 76.3006 355.213 72.4224 347.182 64.6659C340.746 58.4498 337.005 51.0784 335.96 42.5518C335.795 41.1765 335.712 39.8013 335.712 38.426C335.712 30.0094 338.545 22.9956 344.211 17.3846C344.927 16.6694 345.669 16.0093 346.439 15.4042C352.765 10.4533 360.852 7.97779 370.699 7.97779C373.284 7.97779 375.292 9.05049 376.722 11.1959C377.218 11.911 377.548 12.6812 377.713 13.5063C387.009 15.5417 394.436 20.4651 399.992 28.2766C404.668 34.8778 407.006 42.0017 407.006 49.6481ZM375.072 13.3413C374.412 11.746 373.202 10.8108 371.441 10.5358C371.166 10.4808 370.919 10.4533 370.699 10.4533C358.762 10.4533 349.877 14.0839 344.046 21.3453C340.196 26.1862 338.27 31.8798 338.27 38.426C338.27 46.4575 340.993 53.7189 346.439 60.2101C347.484 61.4203 348.585 62.548 349.74 63.5932C343.964 56.827 340.993 49.2905 340.828 40.984C340.828 32.8975 343.634 26.2687 349.245 21.0978C355.131 15.7067 363.135 13.0112 373.257 13.0112C373.972 13.0112 374.577 13.1213 375.072 13.3413ZM377.63 16.1468C377.85 16.8069 377.96 17.302 377.96 17.6321C377.96 17.6871 377.933 17.7696 377.878 17.8797C377.878 17.9897 377.878 18.0722 377.878 18.1272C384.534 19.2824 390.338 22.0879 395.288 26.5438C390.448 21.2078 384.561 17.7421 377.63 16.1468ZM477.309 49.8957C477.309 51.876 476.429 53.2788 474.668 54.104C474.008 54.434 473.348 54.599 472.688 54.599C472.028 54.599 471.45 54.5165 470.955 54.3515C467.875 53.3063 465.482 52.6187 463.776 52.2886C466.362 57.0745 468.947 62.548 471.533 68.7092C471.753 69.2593 471.863 69.8369 471.863 70.442C471.863 72.4224 470.983 73.8252 469.222 74.6503C468.562 74.9804 467.902 75.1454 467.242 75.1454H466.912C466.032 76.7407 464.657 77.5659 462.786 77.6209C462.346 77.6209 462.016 77.5934 461.796 77.5384C461.906 80.0688 461.961 81.9392 461.961 83.1494C461.851 84.4697 461.438 85.1573 460.723 85.2123C460.173 85.1573 459.898 84.0571 459.898 81.9117V76.7132C459.348 76.2181 458.88 75.5855 458.495 74.8153C454.535 65.2435 450.931 57.2395 447.686 50.8033C447.246 50.8033 446.503 50.8033 445.458 50.8033C444.413 50.7483 443.643 50.7208 443.147 50.7208C437.426 50.7208 432.228 50.9134 427.552 51.2984C427.607 52.8937 427.717 55.2867 427.882 58.4773C428.157 62.9331 428.295 66.2887 428.295 68.5442C428.185 69.8644 427.8 70.552 427.139 70.6071C426.589 70.552 426.314 69.4243 426.314 67.2239C426.314 65.4086 426.342 62.7406 426.397 59.2199C426.397 55.7543 426.397 53.1413 426.397 51.3809C426.232 51.3809 425.984 51.4084 425.654 51.4635C425.324 51.5185 425.077 51.546 424.912 51.546C424.857 52.3711 424.802 53.7464 424.747 55.6717C424.526 61.6679 423.866 65.6011 422.766 67.4715C421.831 69.0118 420.511 69.7819 418.805 69.7819H418.393C417.403 71.4322 416.055 72.2849 414.35 72.3399C412.424 72.3399 411.021 71.4322 410.141 69.6169C409.866 68.9567 409.729 68.2966 409.729 67.6365C409.729 63.8958 409.839 60.5952 410.059 57.7346C409.014 59.825 408.106 61.1178 407.336 61.6129C406.621 61.9979 405.823 62.1905 404.943 62.1905C403.017 62.1905 401.642 61.3378 400.817 59.6325C400.487 58.9174 400.322 58.2297 400.322 57.5696V56.992C400.432 51.0509 404.338 46.7601 412.039 44.1196C414.405 32.9525 417.678 25.4986 421.858 21.7579C423.179 20.6027 424.499 19.915 425.819 19.695C427.635 17.9897 429.367 17.1095 431.018 17.0545C437.509 17.0545 445.348 23.7658 454.535 37.1883C455.58 38.7286 456.625 40.2964 457.67 41.8917C464.271 42.6618 469.827 43.872 474.338 45.5223C475.989 46.1825 476.951 47.3927 477.226 49.153C477.281 49.4281 477.309 49.6756 477.309 49.8957ZM415.01 42.8818C415.01 42.8818 416.247 39.5537 418.723 32.8975C419.493 30.532 419.878 28.9642 419.878 28.1941C419.823 27.974 419.768 27.8365 419.713 27.7815C419.108 27.7815 417.98 30.0919 416.33 34.7128C415.175 38.0684 414.597 40.4614 414.597 41.8917C414.597 42.3868 414.735 42.7168 415.01 42.8818ZM469.387 70.442C469.387 70.167 469.332 69.8919 469.222 69.6169C466.637 63.5657 463.749 57.6246 460.558 51.7935C459.293 51.5735 458.22 51.436 457.34 51.3809C461.191 58.1472 464.436 64.7485 467.077 71.1847C467.297 71.7348 467.407 72.2024 467.407 72.5874C468.342 72.5324 468.975 72.0098 469.305 71.0196C469.36 70.7996 469.387 70.6071 469.387 70.442ZM442.24 40.984C437.509 33.5026 433.548 29.6244 430.358 29.3493C428.652 31.9348 427.304 35.978 426.314 41.4791C430.385 41.149 435.281 40.984 441.002 40.984H442.24ZM422.189 41.8917C422.354 41.8366 422.601 41.8091 422.931 41.8091C423.261 41.7541 423.509 41.7266 423.674 41.7266C424.444 37.1058 425.379 33.5576 426.479 31.0821C424.719 33.2275 423.289 36.8307 422.189 41.8917ZM420.703 52.1236C420.483 53.8839 420.346 55.4242 420.291 56.7444C420.236 57.3496 420.181 58.3673 420.126 59.7975C419.961 63.2632 419.713 65.7386 419.383 67.2239C420.318 66.8388 420.978 65.7661 421.363 64.0058C421.583 62.9606 421.858 59.7425 422.189 54.3515C422.244 53.3613 422.299 52.5362 422.354 51.876C422.134 51.876 421.858 51.931 421.528 52.0411C421.143 52.0961 420.868 52.1236 420.703 52.1236ZM451.399 41.3141C451.729 41.3141 452.252 41.3691 452.967 41.4791C453.682 41.5341 454.205 41.5616 454.535 41.5616C448.483 32.3749 443.037 26.0487 438.197 22.583C435.501 20.6027 433.108 19.6125 431.018 19.6125C430.413 19.6675 429.89 19.805 429.45 20.0251C431.925 20.7402 434.621 22.3355 437.536 24.811C438.967 25.4161 440.507 26.5438 442.157 28.1941C444.413 30.4495 447.163 34.3002 450.409 39.7463C450.519 39.9113 450.684 40.1588 450.904 40.4889C451.124 40.874 451.289 41.149 451.399 41.3141ZM474.998 41.2315C473.953 42.1667 472.798 42.6618 471.533 42.7168C470.378 42.6618 469.415 42.3592 468.645 41.8091C469.525 43.1294 470.488 44.2296 471.533 45.1098C472.028 45.4948 472.495 45.6874 472.936 45.6874C474.366 45.5774 475.108 44.6422 475.163 42.8818C475.163 42.4968 475.108 41.9467 474.998 41.2315ZM477.721 42.8818C477.721 45.2473 476.814 46.8701 474.998 47.7503C474.338 48.0803 473.651 48.2454 472.936 48.2454C471.725 48.1903 470.708 47.8053 469.882 47.0901C466.032 43.4595 463.804 39.1962 463.199 34.3002C462.099 31.6047 461.548 28.9092 461.548 26.2137C461.548 12.9562 465.812 5.25478 474.338 3.10938C475.934 2.72431 477.584 2.53177 479.289 2.53177C486.716 2.53177 494.912 5.52983 503.879 11.526C511.525 16.6969 517.301 22.363 521.207 28.5241C523.353 32.0448 524.563 35.2354 524.838 38.0959C525.883 40.7915 526.406 42.9369 526.406 44.5322C526.406 49.6481 523.132 53.1413 516.586 55.0116C516.531 55.0666 516.476 55.0941 516.421 55.0941C519.172 57.7896 523.215 62.1905 528.551 68.2966C528.661 68.4616 528.744 68.5717 528.799 68.6267C530.174 70.277 530.861 72.1198 530.861 74.1552C530.861 77.0158 529.624 79.3537 527.148 81.169C525.663 82.2142 524.068 82.7368 522.362 82.7368C519.612 82.6818 517.494 81.6916 516.009 79.7663C513.478 76.5207 511.415 72.0648 509.82 66.3988C508.61 62.108 507.482 59.2474 506.437 57.8171C506.052 57.3221 505.667 56.882 505.282 56.4969H503.961C502.366 56.4969 499.671 56.4419 495.875 56.3319V56.7444C495.875 66.4813 494.692 72.6424 492.327 75.2279C491.667 75.9431 490.951 76.3006 490.181 76.3006C487.596 76.3006 485.753 75.1729 484.653 72.9175C484.268 72.1473 484.048 71.3497 483.993 70.5245C483.002 59.5225 481.847 51.1609 480.527 45.4398C479.097 39.4437 477.997 34.4378 477.226 30.422C477.171 30.202 477.144 29.8994 477.144 29.5143C477.144 27.4239 478.079 25.9937 479.949 25.2235C480.554 24.9485 481.187 24.811 481.847 24.811C484.983 24.811 487.898 27.3964 490.594 32.5674C491.804 34.9329 492.822 37.6009 493.647 40.5714C496.507 40.9015 501.183 41.6166 507.675 42.7168C513.561 42.6618 516.806 41.2315 517.411 38.426C514.881 34.1352 510.37 29.8444 503.879 25.5536C499.588 22.7481 495.435 20.6577 491.419 19.2824C491.639 23.5732 491.749 26.7913 491.749 28.9367C491.694 30.312 491.281 31.0271 490.511 31.0821C489.961 31.0271 489.686 29.8994 489.686 27.699C489.686 26.6538 489.714 25.141 489.769 23.1606C489.769 21.2353 489.769 19.7775 489.769 18.7873C487.018 18.0722 484.983 17.7146 483.663 17.7146C478.162 17.7146 475.218 20.5752 474.833 26.2962C474.778 26.7913 474.751 27.2589 474.751 27.699C474.751 29.4043 475.384 32.4849 476.649 36.9407C477.364 39.4712 477.721 41.4516 477.721 42.8818ZM489.769 13.7539C486.963 12.8187 484.46 12.3511 482.26 12.3511C476.539 12.3511 473.541 15.3492 473.266 21.3453C473.266 21.4003 473.266 21.4553 473.266 21.5103C473.651 20.6302 474.146 19.805 474.751 19.0349C476.786 16.5044 479.757 15.2392 483.663 15.2392C485.533 15.2392 487.568 15.5417 489.769 16.1468V13.7539ZM491.089 14.1665C491.089 14.4415 491.116 14.8266 491.171 15.3217C491.226 15.8718 491.254 16.2568 491.254 16.4769C492.409 16.8069 493.839 17.3295 495.545 18.0447C502.641 21.1253 508.94 25.4161 514.441 30.9171C510.865 26.1862 505.749 21.8679 499.093 17.9622C496.342 16.3669 493.674 15.1016 491.089 14.1665ZM495.71 52.9487C495.71 53.0588 495.737 53.2238 495.792 53.4438C495.792 53.6639 495.792 53.8289 495.792 53.9389C496.342 53.9389 497.168 53.9664 498.268 54.0214C499.423 54.0214 500.276 54.0214 500.826 54.0214C499.175 53.4713 497.47 53.1138 495.71 52.9487ZM514.193 53.0313C520.024 51.766 523.215 49.3731 523.765 45.8524C523.82 45.4123 523.848 44.9722 523.848 44.5322V43.707C522.967 45.3023 521.51 46.6776 519.474 47.8328C517.439 49.4281 514.798 50.3632 511.553 50.6383C512.488 51.4084 513.368 52.2061 514.193 53.0313ZM469.057 12.3511C471.423 8.77544 475.136 6.98761 480.197 6.98761C480.747 6.98761 481.985 7.15264 483.91 7.4827C484.625 7.59272 485.45 7.64773 486.386 7.64773C486.881 7.59272 487.156 7.45519 487.211 7.23515C487.211 6.41 485.038 5.77738 480.692 5.3373C479.867 5.28229 479.179 5.25478 478.629 5.25478C473.843 5.30979 470.213 7.31767 467.737 11.2784C467.352 11.9385 467.159 12.5436 467.159 13.0938C467.214 13.5888 467.38 13.8639 467.655 13.9189H467.737C468.177 13.3138 468.617 12.7912 469.057 12.3511ZM529.624 41.6441C530.889 42.9094 531.852 43.5695 532.512 43.6245C533.557 43.5695 534.245 43.0744 534.575 42.1392C534.52 42.0292 534.465 41.7816 534.41 41.3966C534.3 40.6264 534.162 40.1313 533.997 39.9113C530.971 36.9957 529.431 33.5576 529.376 29.5969C529.431 24.866 531.494 21.0702 535.565 18.2097C539.361 15.5692 544.146 14.249 549.923 14.249C550.088 14.249 550.363 14.249 550.748 14.249C551.133 14.304 551.408 14.3315 551.573 14.3315C548.877 13.7264 546.374 13.4238 544.064 13.4238C537.628 13.4238 532.704 15.0741 529.294 18.3747C529.184 18.4848 529.101 18.5673 529.046 18.6223C527.011 20.9877 525.993 23.5182 525.993 26.2137C526.048 29.4593 527.341 32.2649 529.871 34.6303C530.806 35.5105 531.274 36.6657 531.274 38.0959C531.219 39.3612 530.669 40.5439 529.624 41.6441ZM521.207 25.6361C522.142 17.3295 527.286 11.856 536.638 9.21552C539.333 8.50039 542.276 8.0328 545.467 7.81276C546.842 7.70274 547.557 7.56521 547.612 7.40018C547.502 7.12513 546.649 6.98761 545.054 6.98761H544.477C533.144 7.4827 525.58 11.0034 521.785 17.5496C520.63 19.64 519.887 21.9504 519.557 24.4809V25.306C519.612 26.7913 519.887 27.589 520.382 27.699C520.767 27.699 521.042 27.0664 521.207 25.8011C521.207 25.7461 521.207 25.6911 521.207 25.6361ZM533.089 34.6303C533.034 34.2452 532.924 33.6676 532.759 32.8975C532.374 31.4122 532.182 30.2845 532.182 29.5143C532.182 27.4239 533.144 25.9937 535.07 25.2235C535.675 24.9485 536.307 24.811 536.968 24.811C540.158 24.811 543.046 30.8896 545.632 43.0469C547.667 52.5087 548.795 61.2278 549.015 69.2043C556.496 64.1983 562.272 58.4223 566.343 51.876C569.534 46.7601 571.129 41.8366 571.129 37.1058C571.074 29.6794 568.186 23.7658 562.465 19.3649C560.485 18.5948 559.384 18.1822 559.164 18.1272C559.549 25.4436 559.742 30.147 559.742 32.2373C559.687 33.6126 559.302 34.3277 558.587 34.3827C557.982 34.3277 557.679 33.2 557.679 30.9996C557.679 29.5143 557.706 27.2864 557.761 24.3159C557.761 21.4003 557.761 19.2274 557.761 17.7971C555.066 17.137 552.453 16.8069 549.923 16.8069C543.431 16.8069 538.508 18.4848 535.152 21.8404C533.007 24.0408 531.934 26.6263 531.934 29.5969C531.934 31.3572 532.319 33.035 533.089 34.6303ZM539.443 74.3202C538.618 64.9685 537.215 55.3142 535.235 45.3573C535.015 45.5223 534.685 45.6874 534.245 45.8524C533.804 45.9624 533.419 46.0449 533.089 46.0999H532.512C531.357 46.0449 530.394 45.7424 529.624 45.1923C529.679 46.2375 529.789 47.8328 529.954 49.9782C530.229 54.434 530.366 57.7621 530.366 59.9626C530.311 61.3378 529.899 62.0529 529.129 62.108C528.579 62.0529 528.303 60.9252 528.303 58.7248C528.303 57.0745 528.331 54.599 528.386 51.2984C528.386 48.0528 528.386 45.6324 528.386 44.0371C528.221 43.872 527.863 43.4319 527.313 42.7168H526.653C525.333 42.6618 524.26 42.2767 523.435 41.5616C518.979 37.3258 516.724 32.2098 516.669 26.2137C516.669 18.8423 519.997 13.1213 526.653 9.05049C531.769 5.96991 537.793 4.42963 544.724 4.42963C553.361 4.48464 560.842 6.74006 567.168 11.1959C575.035 14.6615 580.453 20.1626 583.424 27.699C584.964 31.5497 585.734 35.7305 585.734 40.2413C585.734 49.6481 582.379 58.9724 575.667 68.2141C569.616 76.6307 562.3 82.8468 553.718 86.8626C548.327 89.3931 543.019 90.6583 537.793 90.6583C534.657 90.6583 532.512 89.6406 531.357 87.6052C531.302 87.4952 531.247 87.3852 531.192 87.2752C528.276 87.0551 526.323 85.9549 525.333 83.9746C525.003 83.3144 524.838 82.6268 524.838 81.9117C524.838 79.9863 525.663 78.5835 527.313 77.7034C527.753 77.4833 528.193 77.3458 528.634 77.2908C532.979 76.5757 535.675 75.9981 536.72 75.558C537.435 75.2829 538.343 74.8704 539.443 74.3202ZM575.172 19.7775C578.308 24.8385 579.876 30.532 579.876 36.8582C579.876 38.1785 579.793 39.4987 579.628 40.819C579.518 44.9997 578.418 49.1255 576.327 53.1963C572.532 62.328 566.646 70.1395 558.669 76.6307C550.748 83.0119 542.661 86.5325 534.41 87.1927C535.29 87.7978 536.417 88.1003 537.793 88.1003C546.264 88.1003 554.598 84.7997 562.795 78.1985C563.84 77.3733 564.803 76.5482 565.683 75.723C573.274 68.7367 578.5 60.7602 581.361 51.7935C582.626 47.7778 583.259 43.927 583.259 40.2413C583.204 31.9898 580.508 25.1685 575.172 19.7775Z" fill="#100F0F"/>
</svg>
